<?xml version="1.0" standalone="no"?>
<!DOCTYPE svg PUBLIC "-//W3C//DTD SVG 20010904//EN"
 "http://www.w3.org/TR/2001/REC-SVG-20010904/DTD/svg10.dtd">
<svg version="1.0" xmlns="http://www.w3.org/2000/svg"
 width="535.000000pt" height="535.000000pt" viewBox="0 0 535.000000 535.000000"
 preserveAspectRatio="xMidYMid meet">
<metadata>
Created by potrace 1.14, written by Peter Selinger 2001-2017
</metadata>
<g transform="translate(0.000000,535.000000) scale(0.100000,-0.100000)"
fill="#000000" stroke="none">
<path d="M0 5122 c0 -169 3 -232 13 -241 10 -11 9 -13 -1 -7 -9 6 -12 -33 -11
-183 1 -105 5 -191 9 -191 3 0 6 10 5 23 -3 32 16 59 32 45 17 -14 16 -35 -2
-42 -8 -3 -15 -12 -15 -21 0 -8 -8 -15 -17 -16 -15 0 -15 -2 2 -8 11 -5 25 -6
32 -4 7 3 11 -3 10 -15 -1 -15 -8 -19 -29 -18 l-28 2 0 -94 c0 -59 4 -91 10
-87 5 3 10 2 10 -4 0 -5 -5 -13 -11 -16 -11 -7 -10 -205 1 -205 7 0 4 -45 -6
-80 -6 -22 -5 -23 8 -13 8 7 18 10 21 6 12 -11 7 -22 -13 -28 -19 -6 -19 -20
-20 -837 0 -458 2 -830 4 -827 2 2 7 76 11 164 3 88 8 176 11 195 2 19 6 118
9 219 3 102 7 228 10 280 3 53 8 146 11 206 2 61 9 198 14 305 6 107 13 254
15 325 3 72 7 146 9 165 2 19 7 109 10 200 4 91 10 212 13 270 4 58 8 143 9
190 2 90 9 223 18 330 3 36 8 104 11 153 l7 87 -81 0 -81 0 0 -228z m30 -1058
c0 -8 -4 -12 -10 -9 -5 3 -10 10 -10 16 0 5 5 9 10 9 6 0 10 -7 10 -16z"/>
<path d="M478 5263 c0 -10 -2 -22 -3 -28 -2 -15 -14 -176 -21 -295 -3 -58 -8
-108 -10 -111 -1 -3 -8 -99 -13 -215 -6 -115 -14 -245 -16 -289 -3 -44 -8
-165 -10 -270 -3 -153 -1 -194 11 -212 8 -13 12 -23 9 -23 -4 0 1 -7 10 -17 9
-9 35 -41 58 -72 23 -31 44 -58 47 -61 10 -10 107 -145 136 -190 47 -73 61
-84 107 -87 27 -2 37 0 28 6 -7 5 -11 15 -9 22 3 8 -2 20 -11 27 -9 8 -10 10
-2 6 10 -5 11 -1 6 17 -7 23 -7 23 8 4 l16 -20 15 20 c9 11 14 25 11 32 -7 19
12 25 28 9 11 -11 17 -12 26 -3 9 9 11 8 6 -5 -8 -21 -17 -22 -32 -7 -9 9 -11
7 -9 -7 2 -12 11 -19 25 -18 15 1 21 -4 21 -18 0 -11 9 -22 20 -25 11 -3 17
-10 14 -17 -3 -6 4 0 16 14 12 14 18 19 14 11 -5 -10 -3 -12 5 -6 7 4 11 16 8
26 -3 11 -1 17 4 13 5 -3 9 -1 9 4 0 5 18 8 40 7 35 -2 40 1 40 19 0 12 -6 28
-12 35 -11 11 -10 12 2 6 8 -4 5 2 -7 14 -25 24 -30 41 -11 41 6 0 8 3 5 7 -4
3 -1 13 5 22 7 9 2 7 -11 -4 -14 -11 -21 -14 -17 -7 4 7 2 20 -5 28 -9 12 -10
17 0 27 10 9 11 8 6 -4 -4 -10 -2 -19 2 -22 14 -9 9 41 -5 55 -7 7 -12 9 -10
3 2 -5 -1 -10 -7 -10 -5 0 -9 6 -7 13 2 7 -4 15 -13 19 -12 4 -13 8 -5 13 8 5
8 11 -3 21 -18 19 -32 74 -16 63 8 -4 9 -3 5 4 -4 7 -2 12 4 12 6 0 8 5 4 11
-5 8 -10 6 -16 -5 -5 -9 -16 -16 -24 -16 -9 0 -12 -5 -8 -12 4 -7 3 -8 -4 -4
-13 8 -5 36 12 37 6 0 2 4 -9 9 -19 8 -19 9 3 9 12 1 22 6 22 12 0 5 -4 8 -9
5 -5 -4 -11 0 -14 6 -3 10 -8 10 -23 -2 -19 -14 -19 -14 0 8 16 19 17 22 3 22
-8 0 -18 -6 -21 -12 -5 -10 -7 -10 -12 0 -3 6 -9 10 -13 8 -4 -3 -6 13 -4 35
2 30 0 38 -9 33 -9 -5 -8 -2 1 10 8 9 10 16 5 14 -8 -3 -16 6 -13 15 4 14 7
78 3 67 -3 -8 -8 -22 -12 -30 -3 -8 -7 -26 -8 -39 -4 -35 -12 -37 -37 -12 -12
13 -16 21 -9 17 10 -6 10 -2 1 18 -9 20 -9 29 1 41 16 20 3 20 -17 0 -10 -11
-19 -13 -27 -6 -9 7 -16 7 -24 -1 -7 -7 -12 -10 -13 -8 -1 10 -7 36 -10 49 -5
17 18 26 24 9 2 -7 3 -4 1 6 -2 11 2 26 8 33 8 9 3 9 -18 -2 -16 -8 -29 -18
-29 -22 0 -5 -4 -14 -9 -22 -6 -10 -5 -12 2 -7 7 4 12 1 12 -8 0 -8 3 -21 6
-30 4 -11 1 -16 -11 -16 -10 0 -13 4 -9 13 5 8 2 8 -9 -2 -15 -12 -17 -11 -17
3 0 9 5 16 10 16 6 0 0 11 -14 25 -26 26 -42 33 -30 14 4 -8 0 -8 -15 0 -11 7
-21 14 -21 17 0 3 4 3 9 -1 5 -3 12 -1 15 4 3 5 -1 11 -9 15 -8 3 -17 1 -20
-4 -10 -16 -25 -11 -18 5 7 21 70 15 65 -6 -2 -8 0 -11 3 -7 4 4 16 3 27 -3
18 -9 18 -8 8 10 -8 16 -8 21 1 21 7 0 9 3 6 7 -4 3 -2 11 3 18 7 8 5 12 -5
12 -8 0 -15 -4 -15 -9 0 -4 -5 -8 -11 -8 -5 0 -7 5 -4 10 3 6 1 10 -4 10 -16
0 -13 -20 4 -26 8 -4 12 -10 9 -16 -3 -5 -12 -4 -21 4 -9 7 -17 11 -19 8 -1
-3 -6 -2 -10 3 -4 4 -2 7 4 7 16 0 15 27 0 34 -10 5 -10 7 0 12 6 3 9 11 6 16
-4 7 -2 8 4 4 6 -4 9 -13 6 -20 -10 -26 34 -24 75 3 23 15 39 29 37 32 -2 2 2
10 10 16 10 11 18 8 38 -11 14 -12 23 -26 19 -29 -3 -4 1 -7 10 -7 21 0 22 19
3 26 -20 8 -27 31 -10 31 7 0 11 -4 8 -9 -3 -4 0 -8 6 -8 7 0 20 -10 29 -21
14 -18 21 -20 38 -10 16 8 22 8 26 -2 2 -6 13 -13 25 -13 39 -2 43 -4 38 -13
-4 -5 -3 -11 1 -13 12 -5 58 -68 76 -105 9 -17 22 -37 30 -45 7 -7 24 -29 37
-48 54 -77 85 -87 206 -69 71 10 89 10 112 -2 15 -8 30 -18 34 -24 5 -6 8 -5
8 3 0 7 4 11 9 7 5 -3 13 -1 16 5 5 8 12 7 23 -2 12 -10 14 -10 8 0 -4 6 -2
12 3 12 6 0 10 5 9 11 -3 12 1 14 67 27 53 10 82 5 88 -17 5 -22 -37 -78 -47
-62 -9 13 -26 5 -26 -12 0 -7 4 -6 10 3 5 8 10 10 10 4 0 -6 -7 -17 -15 -24
-8 -7 -12 -16 -9 -21 3 -5 -1 -9 -8 -9 -10 0 -9 -3 2 -10 12 -8 12 -10 -3 -16
-9 -3 -14 -10 -11 -15 3 -5 -2 -9 -10 -9 -12 0 -10 -10 10 -50 l26 -51 -29
-47 c-78 -127 -92 -172 -66 -212 23 -35 162 -207 207 -255 32 -34 74 -94 51
-73 -5 4 -14 3 -22 -4 -7 -6 -16 -8 -20 -4 -3 3 -1 6 5 6 7 0 12 4 12 8 0 12
-58 13 -65 2 -3 -4 -15 -6 -28 -3 -15 3 -18 2 -9 -4 10 -7 8 -13 -6 -26 -17
-16 -20 -16 -32 -2 -7 8 -9 15 -4 16 5 0 0 4 -11 9 -19 8 -19 9 3 9 14 1 22
-5 22 -15 0 -8 4 -13 10 -9 5 3 7 12 3 20 -3 11 -18 14 -48 13 -24 -2 -41 -6
-38 -10 2 -5 -3 -8 -12 -8 -9 0 -14 4 -11 8 3 5 7 22 10 38 5 28 5 28 -11 9
-12 -16 -14 -16 -10 -3 3 10 1 20 -5 24 -7 4 -6 9 3 15 10 6 8 9 -8 9 -12 0
-25 5 -29 12 -4 7 -3 8 4 4 7 -4 12 -2 12 4 0 6 -10 15 -22 20 -13 5 -19 9
-15 9 4 1 3 10 -4 22 -7 14 -17 19 -30 16 -13 -3 -19 0 -19 10 0 10 -6 14 -20
10 -11 -3 -20 -1 -20 3 0 5 -8 11 -17 13 -14 4 -12 5 5 6 12 0 22 6 22 12 0 5
-4 7 -10 4 -5 -3 -10 -2 -10 3 0 5 -9 12 -20 15 -13 3 -20 0 -20 -10 0 -8 5
-11 12 -7 7 4 9 3 5 -1 -13 -15 -39 -15 -33 0 3 8 0 17 -6 21 -6 4 -8 3 -5 -3
4 -6 1 -13 -7 -16 -8 -3 -16 2 -19 13 -3 11 0 21 6 23 7 2 7 6 2 9 -6 3 -16 0
-23 -8 -7 -8 -8 -14 -3 -14 6 0 8 -13 4 -30 -3 -19 -2 -30 5 -28 5 2 9 -1 8
-7 -1 -10 -26 -17 -25 -7 1 4 1 17 0 29 -1 20 -4 21 -27 12 -15 -5 -29 -7 -32
-5 -2 3 7 8 22 12 17 4 26 13 26 25 0 10 1 22 3 26 1 4 -7 9 -18 11 -16 3 -17
1 -5 -7 15 -11 14 -11 -22 -15 -7 0 -14 -11 -16 -23 -2 -12 -11 -27 -20 -35
-15 -12 -16 -11 -4 4 10 12 11 22 3 35 -9 16 -10 15 -11 -6 0 -24 0 -24 -16
-5 -8 10 -13 14 -10 8 7 -15 -21 -27 -29 -13 -4 5 -11 6 -17 3 -6 -4 -20 -7
-31 -8 -11 -1 -23 -8 -25 -16 -5 -13 -3 -13 11 -1 12 9 17 10 17 2 0 -7 5 -9
13 -5 6 4 9 3 4 -1 -8 -10 -32 -15 -97 -20 -100 -8 -131 -7 -145 5 -32 27 -40
-26 -8 -58 7 -8 11 -18 8 -23 -4 -5 -1 -9 5 -9 6 0 9 -4 5 -10 -3 -5 3 -18 15
-30 11 -11 18 -20 15 -20 -3 0 5 -24 16 -52 26 -65 68 -186 74 -213 2 -11 9
-38 15 -60 5 -22 12 -60 16 -85 3 -25 9 -48 13 -52 4 -4 22 6 41 22 48 42 53
46 78 59 13 7 20 17 16 24 -4 7 -4 9 1 5 4 -4 19 2 33 12 13 11 30 20 36 20 7
0 17 5 23 11 13 13 58 20 113 19 54 -2 60 -3 60 -10 0 -3 9 -6 20 -7 25 -2 48
-18 111 -78 46 -44 52 -47 87 -40 20 4 43 11 50 17 6 6 12 7 12 3 0 -4 6 -3
13 2 14 12 114 44 207 68 66 16 170 64 170 78 0 4 6 7 13 7 7 0 28 12 46 28
64 53 555 322 588 322 6 0 27 14 48 30 21 17 46 30 55 30 13 0 17 6 13 20 -4
14 0 20 11 20 10 0 27 5 39 12 33 18 77 19 77 2 0 -16 -12 -18 -25 -5 -6 6
-19 2 -34 -10 -18 -14 -19 -19 -7 -19 9 0 16 4 16 9 0 5 12 8 26 5 20 -4 27 0
31 16 4 17 8 18 14 8 7 -10 9 -10 9 0 0 6 7 12 15 12 8 0 15 -7 15 -15 0 -13
4 -14 21 -5 17 9 25 8 42 -7 l22 -18 -19 23 c-26 31 -8 28 25 -4 17 -17 34
-24 44 -20 9 3 13 10 10 16 -3 6 1 13 9 16 9 3 13 10 10 15 -3 5 -13 5 -25 -1
-13 -7 -19 -7 -19 0 0 5 5 10 10 10 6 0 10 5 10 11 0 6 -7 9 -14 6 -11 -4 -13
-1 -9 10 4 9 2 14 -3 10 -6 -3 -16 -2 -24 4 -11 6 -12 9 -2 9 7 0 10 5 7 10
-3 6 -1 10 5 10 7 0 9 -7 6 -16 -5 -14 -4 -15 9 -4 14 11 19 7 16 -12 0 -5 3
-8 9 -8 5 0 10 5 10 12 0 6 3 8 7 4 4 -4 8 -15 8 -23 0 -9 6 -18 13 -20 14 -5
16 23 2 32 -6 4 -7 11 -4 17 5 7 0 9 -14 6 -13 -4 -23 0 -26 9 -4 11 -2 13 9
10 19 -8 25 3 14 28 -6 17 -8 17 -8 3 -1 -10 -8 -18 -16 -18 -8 0 -15 -5 -15
-11 0 -5 -5 -7 -11 -4 -5 4 -20 -1 -31 -12 -21 -18 -21 -18 -9 4 10 20 9 22
-5 16 -13 -5 -15 -3 -9 7 5 8 4 11 -2 7 -16 -10 -53 22 -50 43 2 11 6 23 10
26 12 13 7 24 -10 24 -14 0 -15 2 -5 9 11 7 10 9 -3 15 -9 3 -13 10 -10 16 4
6 11 7 17 4 7 -4 8 -2 4 5 -4 6 -12 8 -18 5 -8 -5 -9 -1 -4 12 4 10 4 15 0 11
-13 -13 -62 32 -60 57 0 13 5 22 10 18 5 -3 7 2 3 11 -4 11 -2 14 9 10 8 -3
14 1 14 11 0 19 26 22 33 4 3 -8 6 -9 6 -2 1 6 11 9 24 7 15 -3 29 2 38 14 13
17 13 17 -5 3 -18 -14 -19 -14 -7 8 10 19 15 21 27 11 11 -9 12 -15 2 -28 -10
-13 -8 -12 8 2 24 20 38 22 28 5 -5 -9 -2 -9 9 1 23 18 22 20 -10 16 -26 -3
-26 -2 -8 12 17 12 18 15 5 23 -10 7 -5 8 18 4 23 -5 38 -2 51 10 13 11 21 14
26 7 3 -6 1 -11 -6 -11 -7 0 -9 -3 -6 -7 4 -3 15 0 24 9 10 8 25 14 33 13 8 0
31 5 50 12 26 9 34 17 33 32 -2 11 8 28 23 40 13 11 20 22 15 25 -5 4 -13 1
-16 -5 -4 -5 -14 -8 -22 -5 -9 4 -12 1 -8 -7 4 -6 -1 -3 -11 8 -11 13 -15 15
-11 5 2 -9 -2 -25 -10 -35 -14 -19 -15 -19 -28 -1 -7 10 -18 15 -24 12 -5 -4
-12 -2 -15 3 -5 7 -23 7 -103 -1 -7 -1 -13 -6 -13 -11 0 -6 -3 -7 -7 -4 -3 4
-14 0 -24 -9 -13 -12 -19 -12 -25 -3 -4 8 -3 10 4 5 7 -4 12 -2 12 3 0 17 -37
13 -55 -5 -9 -9 -25 -14 -35 -11 -11 3 -18 1 -14 -4 3 -5 -2 -6 -10 -3 -20 8
-31 43 -17 57 6 6 11 22 11 37 0 19 2 22 10 10 8 -13 10 -13 14 0 3 8 4 24 2
35 -5 28 3 38 20 24 8 -6 17 -9 21 -5 3 3 1 6 -6 6 -7 0 -9 5 -6 10 3 6 0 10
-7 10 -10 0 -10 2 1 9 8 6 12 19 9 35 -3 15 -1 29 4 32 4 3 6 10 2 15 -3 6 2
9 12 7 15 -2 18 2 16 22 -2 14 -1 22 3 18 10 -10 33 14 28 29 -7 19 17 55 33
49 11 -4 10 1 -3 21 -10 15 -13 24 -7 21 9 -6 40 55 32 66 -6 9 57 51 72 48
13 -2 13 -2 0 7 -8 6 -19 6 -25 1 -7 -6 -11 -2 -11 10 0 10 4 16 8 14 4 -3 8
2 8 10 0 9 5 16 10 16 6 0 10 5 10 11 0 5 -5 7 -11 3 -8 -5 -8 -1 0 14 6 11
19 19 28 18 10 -2 12 -1 6 1 -14 5 -18 33 -5 33 4 0 14 -6 22 -12 12 -11 12
-10 2 3 -6 9 -8 20 -4 24 4 5 1 5 -5 1 -15 -9 -18 10 -3 19 6 4 8 11 5 16 -4
5 -1 9 4 9 6 0 11 6 11 14 0 8 7 17 16 20 10 4 13 13 10 24 -4 12 1 26 14 37
20 18 27 11 20 -20 -1 -5 2 -7 6 -2 4 4 18 0 30 -8 22 -14 23 -14 15 7 -4 12
-14 24 -21 26 -8 3 -10 0 -5 -9 7 -12 5 -12 -6 -1 -12 11 -12 14 1 22 8 5 24
10 36 10 12 0 25 10 32 25 6 14 17 25 24 24 10 0 10 -2 0 -6 -6 -2 -10 -9 -6
-14 3 -5 0 -9 -5 -9 -6 0 -11 -5 -11 -11 0 -6 6 -7 13 -2 6 4 4 -5 -6 -21
l-18 -27 28 17 c23 14 22 11 -9 -19 -25 -23 -36 -41 -32 -52 6 -14 8 -14 19 1
11 16 13 16 23 -2 6 -10 21 -19 35 -19 19 -1 23 3 19 20 -5 19 -4 19 17 -2 24
-25 41 -30 41 -12 0 6 7 8 16 5 8 -3 13 -2 10 2 -3 5 1 9 9 9 8 0 12 -4 9 -9
-3 -4 1 -8 9 -8 8 0 20 -7 27 -15 11 -13 15 -13 21 -3 6 8 9 9 9 2 0 -7 14
-10 33 -8 17 1 26 0 20 -3 -15 -5 -18 -43 -4 -43 6 0 13 5 17 12 5 7 2 8 -7 3
-8 -4 -4 2 8 14 24 23 42 29 24 7 -12 -14 -10 -51 4 -63 4 -5 5 -3 2 3 -4 7 0
17 8 24 8 7 12 16 9 21 -6 11 44 32 60 25 6 -2 3 -5 -6 -5 -10 -1 -18 -8 -18
-18 0 -9 3 -13 7 -10 3 4 14 0 24 -9 13 -12 19 -12 25 -3 4 8 3 10 -4 5 -7 -4
-12 -3 -12 2 0 6 6 12 14 15 18 7 13 -33 -6 -45 -10 -6 -9 -8 3 -8 10 0 19
-11 21 -25 5 -25 -7 -36 -14 -13 -3 7 -7 2 -11 -11 -5 -19 -3 -22 15 -18 11 3
17 3 14 0 -3 -4 2 -15 11 -25 16 -18 16 -18 -2 -12 -15 6 -17 4 -12 -10 4 -10
1 -19 -7 -22 -9 -3 -12 -16 -9 -39 2 -18 0 -36 -6 -39 -6 -4 -8 2 -6 13 3 14
-1 18 -12 14 -12 -5 -12 -7 -1 -14 7 -5 9 -9 3 -9 -5 0 -3 -6 6 -13 22 -17 33
-54 18 -63 -8 -4 -9 -3 -5 4 5 8 2 10 -9 6 -10 -4 -12 -10 -7 -18 15 -19 21
-56 10 -62 -6 -4 -5 -10 3 -15 11 -7 11 -9 1 -9 -7 0 -11 -4 -8 -9 3 -5 -2
-12 -11 -15 -15 -6 -14 -8 4 -21 12 -9 29 -12 40 -8 16 6 17 5 4 -13 -7 -10 0
-4 17 14 16 19 41 34 56 36 15 2 36 12 47 23 l20 20 -26 17 c-27 18 -27 18
-20 -6 4 -15 3 -19 -3 -10 -7 11 -15 10 -41 -6 -17 -10 -29 -21 -26 -23 2 -3
-5 -5 -15 -5 -11 0 -20 6 -20 13 0 7 9 13 20 13 11 0 19 5 17 11 -1 6 9 13 22
14 14 1 27 7 29 13 2 7 10 12 17 12 8 0 19 8 24 18 6 10 11 12 11 4 0 -7 4
-11 8 -8 5 3 9 -1 9 -9 0 -8 -4 -12 -9 -9 -4 3 -8 -2 -8 -10 0 -20 42 -17 52
4 4 9 7 3 7 -17 1 -27 -4 -34 -24 -39 -14 -3 -22 -10 -19 -15 3 -5 11 -7 17
-3 7 3 1 -4 -12 -15 -12 -12 -28 -18 -35 -14 -6 4 -5 -1 3 -11 14 -17 18 -15
56 26 22 23 40 46 38 49 -1 3 9 17 24 30 14 13 23 18 19 11 -11 -18 25 -28 38
-10 6 8 22 17 35 21 22 5 21 3 -10 -26 -19 -18 -34 -35 -34 -38 0 -12 -31 -35
-41 -32 -7 2 -18 -2 -26 -10 -8 -8 -30 -22 -48 -32 -19 -10 -43 -24 -53 -33
-16 -15 -17 -14 -11 1 3 9 10 17 16 17 5 0 7 4 3 10 -7 11 -86 -41 -132 -87
-31 -31 -73 -44 -73 -23 0 5 9 24 20 42 22 37 25 48 10 48 -5 0 -9 -5 -7 -12
1 -7 -2 -12 -8 -13 -5 0 -16 -4 -22 -8 -7 -5 -18 -5 -25 -1 -7 4 -8 3 -4 -4 4
-7 -3 -17 -18 -24 -14 -6 -26 -15 -26 -20 0 -4 -3 -7 -7 -7 -5 1 -12 1 -18 0
-12 -1 -65 -46 -65 -54 0 -3 -10 -17 -22 -31 -39 -41 -47 -54 -41 -60 4 -3 0
-6 -7 -6 -7 0 -11 -3 -8 -6 4 -3 -1 -14 -10 -23 -26 -27 -56 -65 -57 -71 0 -3
-3 -4 -7 -2 -14 4 -9 -16 5 -21 10 -4 10 -7 0 -18 -7 -7 -13 -21 -13 -31 0
-10 -4 -18 -10 -18 -5 0 -7 -8 -4 -17 5 -17 5 -17 -6 0 -6 9 -9 21 -5 26 3 5
1 13 -5 16 -6 4 -9 1 -8 -7 2 -7 -3 -12 -9 -10 -7 1 -13 -5 -13 -13 0 -8 6
-12 14 -9 20 8 25 -25 9 -56 -7 -14 -10 -34 -6 -45 5 -16 3 -18 -8 -8 -12 9
-14 4 -12 -33 1 -31 -4 -51 -15 -62 -17 -17 -29 -77 -14 -68 4 3 6 -11 4 -31
-3 -24 -7 -31 -13 -22 -13 21 -12 -7 1 -32 6 -10 7 -19 2 -19 -5 0 -14 -11
-20 -24 -9 -19 -8 -27 4 -37 8 -6 12 -14 9 -17 -3 -3 5 -16 17 -29 12 -13 16
-23 10 -23 -6 0 -13 4 -16 9 -3 5 -17 9 -32 9 -14 0 -22 -3 -18 -7 17 -12 14
-39 -3 -44 -17 -4 -17 -5 0 -6 10 0 16 -5 12 -10 -3 -5 -2 -12 3 -15 5 -3 9 0
10 7 0 7 3 21 6 32 2 11 5 24 5 28 1 5 6 5 12 1 8 -5 8 -9 -1 -14 -9 -5 -9 -9
-1 -14 6 -4 11 -2 11 3 0 6 5 11 11 11 5 0 7 -6 3 -12 -6 -10 -5 -10 7 -1 14
11 42 4 40 -11 -1 -3 -1 -7 0 -8 0 -2 2 -14 5 -28 2 -14 12 -31 21 -37 14 -11
14 -13 1 -18 -8 -3 -15 -12 -15 -20 0 -20 7 -19 24 2 13 16 13 16 3 -4 -7 -15
-7 -23 -1 -23 6 0 8 -8 4 -17 -3 -10 -2 -15 2 -10 13 11 44 -23 38 -41 -4 -10
-10 -19 -14 -22 -4 -3 -10 -22 -13 -43 -5 -34 -3 -39 20 -47 14 -6 29 -8 33
-6 4 3 48 6 98 7 51 2 90 6 87 11 -3 4 -1 8 5 8 6 0 20 10 32 23 12 12 19 16
15 10 -11 -19 5 -16 20 5 13 16 14 16 11 -3 -1 -11 -7 -27 -12 -35 -8 -13 -6
-13 8 -2 9 8 15 19 14 25 -1 8 10 11 29 9 38 -3 67 23 43 40 -12 8 -12 9 1 6
8 -3 22 3 32 11 36 31 128 33 128 4 0 -13 3 -13 18 -2 14 11 15 11 5 -1 -7 -7
-25 -15 -40 -16 -20 -2 -24 -1 -13 6 11 7 9 9 -10 8 -14 -1 -31 -6 -37 -11 -9
-6 -13 -6 -13 2 0 6 -7 11 -16 11 -13 0 -14 -3 -4 -15 10 -12 8 -14 -9 -10
-18 3 -19 1 -9 -15 10 -16 15 -17 28 -6 15 13 69 14 89 2 5 -4 13 -1 17 5 5 8
9 8 14 -1 6 -9 14 -8 36 3 16 8 40 17 54 18 22 4 49 28 117 104 10 11 27 34
37 50 32 50 104 102 121 87 5 -4 5 1 2 10 -5 15 -2 16 18 8 48 -18 105 -61
105 -78 0 -10 4 -22 9 -28 6 -5 12 -21 15 -36 2 -14 9 -35 14 -45 6 -10 11
-22 12 -28 11 -57 90 -153 90 -109 0 17 -1 17 90 -1 14 -3 39 -7 55 -9 17 -2
39 -7 49 -12 13 -5 17 -4 13 3 -5 8 13 11 55 10 56 -2 73 -8 144 -49 83 -49
107 -57 102 -35 -1 6 1 48 5 92 8 92 19 292 47 855 31 637 31 656 5 646 -7 -2
-22 6 -34 20 -26 30 -45 32 -36 4 6 -19 3 -21 -32 -19 -55 2 -83 10 -83 21 0
12 -42 53 -62 61 -10 4 -8 10 6 21 10 8 22 13 27 11 4 -3 10 -1 14 5 3 5 22
10 42 10 26 0 36 -5 40 -20 3 -11 9 -20 14 -20 19 0 24 2 21 11 -1 6 7 5 18
-1 11 -6 20 -15 20 -20 0 -14 58 -42 64 -31 3 5 8 67 12 137 3 71 9 167 13
214 4 47 7 130 7 184 l-1 100 -35 3 c-19 1 -127 7 -240 13 -113 6 -232 12
-265 15 -33 2 -112 7 -175 10 -189 9 -296 15 -470 25 -91 5 -235 12 -320 15
-85 3 -258 12 -385 20 -333 20 -544 30 -674 30 l-113 0 -33 -60 c-47 -84 -53
-87 -113 -37 -27 23 -54 42 -60 42 -6 0 -12 3 -14 8 -1 4 -34 22 -72 40 -74
36 -128 43 -416 57 -74 3 -198 10 -275 15 -77 6 -148 10 -157 10 -24 0 -23
-31 1 -100 11 -30 17 -58 15 -62 -8 -13 -34 -9 -34 5 0 7 -11 24 -24 39 -14
14 -22 28 -19 31 3 3 -4 11 -15 18 -11 7 -18 19 -15 28 7 24 -34 -29 -52 -65
-16 -35 -50 -50 -59 -27 -3 8 -2 12 3 8 5 -3 -4 22 -19 54 -16 33 -38 65 -50
71 -19 10 -191 23 -468 35 -102 5 -138 3 -150 -7 -11 -9 -14 -9 -8 -1 5 9 -5
11 -39 8 -26 -3 -51 -7 -55 -10 -5 -3 -11 -1 -15 5 -10 16 -25 12 -27 -7z
m659 -77 c-2 -5 -13 -16 -25 -24 -20 -13 -22 -13 -22 2 0 9 5 16 11 16 5 0 8
4 5 8 -2 4 4 8 15 8 11 0 18 -5 16 -10z m56 2 c9 2 17 0 18 -5 0 -4 2 -18 5
-30 3 -20 0 -23 -26 -23 -19 0 -30 5 -30 14 0 8 -5 16 -11 18 -5 2 -7 11 -4
21 4 9 12 14 19 10 6 -4 19 -6 29 -5z m-156 -18 c-1 -11 -7 -20 -15 -20 -7 0
-11 4 -8 9 4 5 3 11 -1 14 -5 2 -2 2 5 1 6 -2 12 1 12 6 0 6 2 10 4 10 3 0 4
-9 3 -20z m40 4 c-3 -3 -12 -4 -19 -1 -8 3 -5 6 6 6 11 1 17 -2 13 -5z m183
-19 c0 -7 7 -15 15 -19 8 -3 15 -10 15 -16 0 -14 -27 -13 -33 3 -3 9 -7 9 -20
-2 -11 -9 -17 -10 -17 -2 0 6 4 11 10 11 6 0 6 9 0 24 -7 21 -6 23 11 19 10
-3 19 -11 19 -18z m-180 -5 c0 -5 -2 -10 -4 -10 -3 0 -8 5 -11 10 -3 6 -1 10
4 10 6 0 11 -4 11 -10z m20 -20 c0 -5 -5 -10 -11 -10 -5 0 -7 5 -4 10 3 6 8
10 11 10 2 0 4 -4 4 -10z m2331 -263 c-10 -9 -11 -8 -5 6 3 10 9 15 12 12 3
-3 0 -11 -7 -18z m-47 -12 c9 -14 12 -25 6 -25 -5 0 -10 4 -10 9 0 5 -7 17
-16 25 -8 9 -11 16 -6 16 5 0 17 -11 26 -25z m-623 -52 c7 -13 16 -23 21 -23
11 0 48 -38 48 -49 0 -5 -19 -12 -42 -15 -36 -6 -40 -9 -28 -19 8 -7 22 -20
30 -31 14 -17 12 -18 -25 -12 -22 3 -42 5 -44 6 -2 0 -1 3 2 6 3 4 2 14 -3 24
-6 11 -3 25 9 43 10 15 20 25 23 22 2 -3 5 1 5 9 0 8 -10 20 -23 26 -21 12
-37 43 -27 54 8 8 41 -17 54 -41z m619 17 c8 -5 11 -10 5 -10 -5 0 -17 5 -25
10 -8 5 -10 10 -5 10 6 0 17 -5 25 -10z m-40 -10 c0 -5 -5 -10 -11 -10 -5 0
-7 5 -4 10 3 6 8 10 11 10 2 0 4 -4 4 -10z m137 -42 c-3 -8 -6 -5 -6 6 -1 11
2 17 5 13 3 -3 4 -12 1 -19z m293 -8 c0 -5 -2 -10 -4 -10 -3 0 -8 5 -11 10 -3
6 -1 10 4 10 6 0 11 -4 11 -10z m-308 -62 c-6 -6 -18 -1 -34 15 -23 23 -24 26
-7 30 10 3 20 0 23 -7 2 -6 5 -2 6 9 1 16 4 14 12 -8 7 -19 7 -32 0 -39z m89
38 c11 9 22 14 26 11 3 -4 1 -7 -6 -7 -7 0 -9 -5 -5 -12 4 -7 4 -10 -1 -6 -4
4 -15 -3 -25 -14 l-17 -22 -12 22 c-6 12 -18 22 -26 22 -8 0 -15 5 -15 10 0 6
14 4 31 -5 29 -15 32 -15 50 1z m144 4 c5 -8 11 -8 19 -1 9 8 13 7 13 -3 0
-16 -13 -15 -42 2 -11 6 -15 12 -8 12 6 0 15 -5 18 -10z m-78 -16 c-3 -3 -12
-4 -19 -1 -8 3 -5 6 6 6 11 1 17 -2 13 -5z m100 -29 c0 -8 -4 -12 -9 -9 -5 3
-6 10 -3 15 9 13 12 11 12 -6z m1133 -166 c118 -29 213 -79 149 -79 -19 0 -19
-2 6 -34 18 -24 23 -36 14 -42 -7 -4 -19 3 -29 16 -13 17 -19 20 -25 10 -6 -9
-4 -11 6 -5 8 5 10 4 6 0 -13 -15 -37 -14 -37 0 0 8 -10 17 -22 20 -13 4 -30
16 -38 26 -14 17 -18 18 -62 5 -43 -13 -47 -13 -63 5 -10 10 -22 16 -27 13 -5
-3 -23 -7 -41 -9 -18 -2 -26 -1 -19 2 22 9 13 24 -12 17 -13 -3 -27 -1 -31 5
-3 6 -11 9 -16 6 -5 -4 -9 -1 -9 4 0 6 5 11 12 11 6 0 9 3 6 6 -3 3 -22 -2
-43 -10 -20 -9 -62 -15 -93 -15 -31 0 -69 -3 -84 -6 -21 -4 -26 -2 -24 12 2
14 14 19 56 21 29 2 63 10 74 18 25 17 70 19 60 3 -5 -8 6 -10 37 -5 24 3 62
6 84 6 22 0 47 4 55 10 19 12 11 13 110 -11z m-486 -53 c-3 -8 -13 -12 -25 -9
-23 6 -15 23 11 23 12 0 17 -5 14 -14z m-1622 -57 c-8 -21 -9 -21 -17 -3 -12
27 -12 38 0 46 15 11 26 -17 17 -43z m-2045 -29 c2 -11 -1 -20 -5 -20 -4 0 -9
12 -10 27 -2 30 10 24 15 -7z m1623 10 c0 -5 -5 -10 -11 -10 -5 0 -7 5 -4 10
3 6 8 10 11 10 2 0 4 -4 4 -10z m-6 -26 c9 -3 16 -10 16 -16 0 -5 -6 -6 -12
-2 -9 6 -9 3 0 -9 8 -9 10 -22 6 -28 -5 -8 -3 -9 6 -4 8 5 11 4 6 -3 -12 -21
13 -23 34 -2 11 11 25 20 30 20 6 0 11 8 11 18 1 16 2 16 6 0 7 -27 21 -21 18
7 -3 25 8 34 20 15 3 -5 1 -10 -5 -10 -8 0 -8 -6 0 -20 9 -16 8 -20 -6 -20
-13 0 -14 -3 -5 -14 9 -11 8 -18 -4 -30 -10 -10 -14 -25 -11 -38 3 -13 3 -17
0 -10 -3 6 -13 12 -22 12 -15 0 -15 -2 -2 -10 13 -9 13 -11 0 -20 -19 -13 -33
-13 -25 0 3 6 -2 10 -12 10 -16 -1 -15 -3 5 -19 23 -20 30 -37 10 -25 -8 5 -8
2 1 -10 12 -15 12 -17 0 -14 -8 2 -18 8 -22 13 -4 6 -5 -2 -1 -17 4 -18 2 -28
-6 -28 -6 0 -8 -4 -5 -10 3 -5 2 -10 -3 -10 -6 0 -13 7 -16 16 -3 8 -2 12 4 9
6 -3 10 -2 10 3 0 5 -11 10 -25 10 -29 0 -31 -6 -9 -23 14 -10 11 -11 -15 -11
-24 0 -31 4 -31 20 0 20 0 20 15 0 12 -16 14 -16 9 -2 -4 11 0 20 10 24 14 5
14 7 0 21 -13 13 -13 17 -2 24 7 5 9 9 4 9 -5 0 5 13 22 28 37 33 42 48 11 32
-11 -7 -23 -9 -26 -7 -2 3 5 8 16 12 20 6 29 24 14 26 -5 0 -16 2 -26 4 -15 3
-16 1 -5 -13 11 -13 11 -14 0 -8 -14 9 -52 -19 -52 -38 0 -6 5 -4 10 4 7 11
10 11 10 2 0 -7 4 -11 9 -7 5 3 13 0 17 -6 4 -7 3 -9 -4 -5 -6 3 -13 -6 -17
-23 -6 -26 -9 -28 -43 -25 -23 2 -32 0 -23 -5 9 -6 10 -11 2 -15 -15 -10 -33
3 -25 16 4 6 2 8 -3 5 -13 -8 -53 29 -72 66 -8 15 -18 27 -23 27 -4 0 -8 8 -8
18 1 16 2 15 15 -2 8 -10 16 -24 19 -30 3 -7 11 -3 20 8 10 12 16 15 16 7 0
-11 3 -11 15 -1 12 10 15 10 15 -1 0 -7 14 1 30 19 31 34 38 52 19 52 -5 0 -7
-4 -4 -10 3 -5 2 -10 -3 -10 -6 0 -9 11 -8 24 1 24 22 25 38 2 5 -7 8 -3 8 8
0 15 3 16 15 6 9 -7 18 -10 22 -6 3 3 1 6 -6 6 -7 0 -9 5 -6 10 7 12 8 12 29
4z m-1583 -21 c13 -16 12 -17 -3 -4 -10 7 -18 15 -18 17 0 8 8 3 21 -13z
m2081 -15 c-2 -15 -8 -26 -12 -23 -12 8 -9 52 4 52 8 0 10 -11 8 -29z m1287
15 c-7 -10 -15 -20 -16 -22 -2 -2 -3 5 -3 17 0 14 6 22 16 22 14 0 15 -3 3
-17z m-3406 -10 c-5 -13 -2 -15 12 -10 15 6 16 5 5 -8 -7 -8 -16 -12 -21 -9
-5 3 -9 -2 -9 -11 0 -9 4 -14 9 -10 13 7 24 -12 15 -27 -5 -8 -11 -6 -20 7
-12 17 -14 16 -25 -9 -15 -31 -34 -34 -36 -5 -2 18 0 19 14 7 14 -11 15 -10 9
9 -4 13 -2 24 5 29 8 4 9 3 5 -4 -4 -7 -4 -12 -1 -12 3 0 13 16 21 35 14 35
29 51 17 18z m74 -17 c0 -8 -6 -12 -14 -9 -7 3 -10 9 -7 14 8 14 21 11 21 -5z
m1394 -19 c-10 -9 -11 -8 -5 6 3 10 9 15 12 12 3 -3 0 -11 -7 -18z m763 -9
c-4 -5 -2 -13 3 -17 6 -3 13 -19 17 -36 5 -22 4 -26 -4 -15 -8 13 -10 13 -10
-2 0 -11 -5 -15 -15 -12 -8 4 -15 16 -15 28 0 12 -5 27 -12 34 -8 8 -8 15 0
25 7 8 8 17 4 22 -4 4 3 2 16 -4 12 -7 20 -17 16 -23z m-727 -14 c-9 -9 -28 6
-21 18 4 6 10 6 17 -1 6 -6 8 -13 4 -17z m1693 -4 c0 -5 -7 -7 -15 -4 -8 4
-12 10 -9 15 6 11 24 2 24 -11z m-3023 4 c-3 -3 -12 -4 -19 -1 -8 3 -5 6 6 6
11 1 17 -2 13 -5z m1044 -11 c35 -21 38 -43 6 -43 -24 0 -67 33 -67 50 0 15
29 12 61 -7z m2591 5 c-6 -6 -19 -13 -27 -14 -13 -2 -14 1 -4 12 6 8 19 14 27
14 12 0 13 -3 4 -12z m-2212 -18 c0 -5 -5 -10 -11 -10 -5 0 -7 5 -4 10 3 6 8
10 11 10 2 0 4 -4 4 -10z m649 -63 c-2 -1 -11 -8 -21 -15 -12 -10 -18 -10 -24
-1 -4 7 -3 9 4 5 6 -3 13 -2 17 4 3 5 11 10 17 10 6 0 9 -1 7 -3z m-761 -265
c73 -106 76 -113 61 -123 -16 -10 -62 -3 -101 17 -15 8 -35 11 -44 7 -11 -4
-15 -3 -10 5 3 6 -3 13 -14 17 -17 5 -20 16 -22 63 0 31 -1 64 0 72 0 8 -3 32
-7 52 -5 20 -6 39 -3 42 7 8 96 -88 140 -152z m-1398 114 c0 -9 -30 0 -30 8 0
6 -7 3 -14 -7 -9 -12 -16 -14 -21 -8 -3 6 -1 11 4 11 6 0 10 3 10 8 -3 20 3
21 26 6 14 -9 25 -17 25 -18z m130 -186 c0 -5 -4 -10 -10 -10 -5 0 -10 5 -10
10 0 6 5 10 10 10 6 0 10 -4 10 -10z m2131 -33 c-6 -8 -8 -17 -4 -20 3 -4 1
-7 -5 -7 -7 0 -12 4 -12 9 0 5 -12 8 -27 5 -20 -3 -24 -2 -14 5 8 5 22 8 32 6
10 -2 21 0 24 6 4 5 9 9 12 9 3 0 0 -6 -6 -13z m-2086 -56 c-6 -5 -25 10 -25
20 0 5 6 4 14 -3 8 -7 12 -15 11 -17z m1520 -53 c28 -61 23 -80 -10 -39 -28
32 -47 76 -38 85 14 14 25 3 48 -46z m-1500 32 c-3 -5 -14 -10 -23 -9 -14 0
-13 2 3 9 27 11 27 11 20 0z m2005 -97 c0 -8 -5 -11 -10 -8 -6 4 -7 12 -4 18
4 7 1 6 -7 -2 -9 -9 -10 -15 -3 -18 6 -2 20 -10 30 -18 18 -15 18 -15 -1 -9
-20 6 -20 5 -1 -10 11 -9 23 -16 27 -16 4 0 2 -12 -6 -27 -13 -25 -12 -28 17
-50 23 -16 27 -23 15 -23 -10 0 -17 -6 -16 -12 4 -35 -3 -40 -16 -14 -9 16
-14 35 -11 43 3 7 1 15 -4 18 -6 4 -10 -4 -10 -16 0 -12 -3 -19 -7 -16 -10 11
-12 56 -2 62 13 9 11 22 -3 22 -7 0 -22 4 -33 9 -19 7 -19 7 -2 -10 19 -19 23
-41 6 -30 -7 4 -10 1 -7 -7 3 -8 11 -13 17 -11 6 1 11 -2 11 -7 0 -27 -80 -37
-87 -11 -4 13 -3 13 6 0 8 -12 11 -12 11 -1 0 7 6 11 15 7 9 -3 15 0 15 9 0 9
-6 12 -17 9 -15 -5 -15 -3 1 10 11 9 15 16 10 16 -17 0 -12 84 5 97 11 9 12
12 3 13 -10 0 -10 3 0 14 11 11 16 11 35 -1 13 -9 23 -22 23 -30z m725 27 c-3
-5 -15 -10 -26 -10 -10 0 -19 5 -19 10 0 6 12 10 26 10 14 0 23 -4 19 -10z
m-125 -80 c0 -5 -14 -10 -31 -10 -17 0 -28 4 -24 10 3 6 17 10 31 10 13 0 24
-4 24 -10z m-2705 -48 c3 -16 0 -19 -13 -15 -10 4 -12 8 -4 11 9 3 9 9 1 25
-9 17 -9 19 0 11 6 -6 13 -20 16 -32z m-71 20 c3 -5 -1 -9 -9 -9 -8 0 -12 4
-9 9 3 4 7 8 9 8 2 0 6 -4 9 -8z m201 -42 c3 -5 2 -10 -4 -10 -5 0 -13 5 -16
10 -3 6 -2 10 4 10 5 0 13 -4 16 -10z m-175 -34 c0 -3 -4 -8 -10 -11 -5 -3
-10 -1 -10 4 0 6 5 11 10 11 6 0 10 -2 10 -4z m2227 -35 c0 -10 -6 -17 -12
-14 -16 5 -15 33 1 33 7 0 12 -9 11 -19z m-159 -15 c3 -11 -1 -17 -9 -14 -7 2
-13 12 -15 22 -3 23 20 15 24 -8z m-2138 -11 c0 -1 -6 -7 -13 -13 -10 -8 -13
-6 -13 7 0 11 6 17 13 14 7 -3 13 -6 13 -8z m2090 0 c-5 -7 -7 -15 -3 -18 3
-4 1 -7 -5 -7 -6 0 -10 8 -9 18 0 10 7 19 14 19 9 0 10 -4 3 -12z m103 -4 c-4
-15 20 -14 36 2 11 10 11 8 0 -9 -11 -19 -16 -20 -38 -11 -35 15 -34 14 -26
27 8 14 31 7 28 -9z m153 -8 c-6 -6 -36 9 -36 18 0 5 9 4 20 -3 10 -7 18 -14
16 -15z m-47 -2 c9 -6 10 -11 2 -15 -6 -4 -11 -2 -11 4 0 6 -5 8 -10 5 -6 -4
-8 -11 -5 -16 4 -5 2 -9 -3 -9 -6 0 -13 7 -16 16 -3 8 -2 12 4 9 6 -3 10 -1
10 4 0 13 10 14 29 2z m-150 -4 c-2 -1 -12 -9 -22 -16 -15 -12 -17 -12 -11 3
3 9 13 16 22 16 8 0 13 -1 11 -3z m201 -17 c0 -5 -2 -10 -4 -10 -3 0 -8 5 -11
10 -3 6 -1 10 4 10 6 0 11 -4 11 -10z m-260 -10 c-20 -13 -33 -13 -25 0 3 6
14 10 23 10 15 0 15 -2 2 -10z m290 -16 c0 -8 -19 -13 -24 -6 -3 5 1 9 9 9 8
0 15 -2 15 -3z m-1809 -61 c12 -16 12 -17 -2 -6 -9 7 -20 9 -24 5 -5 -4 -5 -1
-1 6 9 16 11 15 27 -5z m173 -131 c3 -5 -1 -9 -9 -9 -8 0 -12 4 -9 9 3 4 7 8
9 8 2 0 6 -4 9 -8z m13 -64 c-3 -8 -6 -5 -6 6 -1 11 2 17 5 13 3 -3 4 -12 1
-19z m203 -2 c0 -3 -4 -8 -10 -11 -5 -3 -10 -1 -10 4 0 6 5 11 10 11 6 0 10
-2 10 -4z m-33 -38 c-3 -8 -6 -5 -6 6 -1 11 2 17 5 13 3 -3 4 -12 1 -19z
m2495 -7 c-1 -13 3 -30 9 -37 9 -11 7 -15 -6 -20 -21 -8 -50 21 -59 59 -6 27
-5 28 26 25 28 -3 33 -7 30 -27z m621 -57 c9 -10 -20 -61 -38 -68 -42 -16 -60
9 -32 45 18 23 57 36 70 23z m-927 -103 c-4 -5 0 -11 6 -14 8 -2 9 -8 4 -13
-5 -5 -11 -4 -13 4 -3 6 -10 9 -16 5 -7 -4 -6 1 2 10 14 18 26 23 17 8z"/>
<path d="M2397 4306 c-3 -8 0 -16 6 -19 7 -3 13 3 13 14 0 22 -12 25 -19 5z"/>
<path d="M2225 4290 c-3 -5 -1 -10 4 -10 6 0 11 5 11 10 0 6 -2 10 -4 10 -3 0
-8 -4 -11 -10z"/>
<path d="M2357 4279 c7 -7 15 -10 18 -7 3 3 -2 9 -12 12 -14 6 -15 5 -6 -5z"/>
<path d="M2135 4250 c-3 -5 -1 -10 4 -10 6 0 11 5 11 10 0 6 -2 10 -4 10 -3 0
-8 -4 -11 -10z"/>
<path d="M2170 4232 c0 -7 -3 -11 -7 -9 -5 1 -9 -2 -11 -8 -2 -5 1 -11 6 -13
11 -3 26 28 17 36 -3 3 -5 0 -5 -6z"/>
<path d="M2247 4203 c3 -7 9 -10 14 -7 14 8 11 21 -5 21 -8 0 -12 -6 -9 -14z"/>
<path d="M2916 3642 c-3 -5 1 -9 9 -9 8 0 15 4 15 9 0 4 -4 8 -9 8 -6 0 -12
-4 -15 -8z"/>
<path d="M2947 3599 c7 -7 15 -10 18 -7 3 3 -2 9 -12 12 -14 6 -15 5 -6 -5z"/>
<path d="M2970 3539 c0 -5 5 -7 10 -4 6 3 10 8 10 11 0 2 -4 4 -10 4 -5 0 -10
-5 -10 -11z"/>
<path d="M1302 5220 c7 -11 17 -20 22 -20 5 0 1 9 -9 20 -10 11 -20 20 -22 20
-2 0 2 -9 9 -20z"/>
<path d="M3297 4757 c-3 -8 -2 -20 3 -26 5 -9 8 -4 8 13 0 29 -3 32 -11 13z"/>
<path d="M3346 4702 c-3 -5 1 -9 9 -9 8 0 12 4 9 9 -3 4 -7 8 -9 8 -2 0 -6 -4
-9 -8z"/>
<path d="M3310 4690 c-8 -5 -12 -11 -9 -14 2 -3 11 -1 19 4 8 5 12 11 9 14 -2
3 -11 1 -19 -4z"/>
<path d="M3410 4670 c-9 -6 -10 -10 -3 -10 6 0 15 5 18 10 8 12 4 12 -15 0z"/>
<path d="M3583 4639 c0 -26 4 -39 13 -39 20 0 27 19 10 26 -9 3 -16 14 -16 23
0 13 2 13 9 2 6 -9 11 -10 15 -3 4 6 -2 15 -12 21 -16 9 -18 5 -19 -30z"/>
<path d="M3510 4662 c0 -5 7 -9 15 -9 8 0 12 4 9 9 -3 4 -9 8 -15 8 -5 0 -9
-4 -9 -8z"/>
<path d="M3650 4648 c-12 -8 -12 -9 2 -5 9 3 19 1 22 -6 3 -9 5 -9 5 0 1 18
-13 23 -29 11z"/>
<path d="M3336 4634 c-8 -20 -8 -24 2 -24 4 0 8 9 9 20 2 24 -3 26 -11 4z"/>
<path d="M3777 4641 c2 -2 -2 -9 -7 -16 -6 -8 -5 -16 3 -26 6 -8 11 -12 10
-10 -2 2 2 9 7 16 6 8 5 16 -3 26 -6 8 -11 12 -10 10z"/>
<path d="M3265 4630 c3 -5 8 -10 11 -10 2 0 4 5 4 10 0 6 -5 10 -11 10 -5 0
-7 -4 -4 -10z"/>
<path d="M3490 4620 c-7 -14 -7 -20 0 -20 5 0 10 6 10 14 0 8 6 17 13 19 9 4
9 6 0 6 -7 1 -17 -8 -23 -19z"/>
<path d="M3550 4630 c0 -5 5 -10 11 -10 5 0 7 5 4 10 -3 6 -8 10 -11 10 -2 0
-4 -4 -4 -10z"/>
<path d="M3655 4611 c-3 -5 0 -13 6 -17 7 -4 9 -3 5 4 -3 5 0 13 6 15 9 4 10
6 1 6 -6 1 -14 -3 -18 -8z"/>
<path d="M3803 4586 c0 -8 6 -12 14 -9 7 3 10 9 7 14 -8 14 -21 11 -21 -5z"/>
<path d="M3543 4580 c2 -8 -5 -21 -17 -28 -20 -12 -20 -13 4 -6 33 9 34 10 20
31 -7 11 -10 12 -7 3z"/>
<path d="M3355 4571 c-3 -5 -2 -12 3 -15 5 -3 9 1 9 9 0 17 -3 19 -12 6z"/>
<path d="M3647 4565 c-9 -21 7 -27 29 -10 19 15 19 15 0 8 -13 -4 -17 -3 -12
5 4 7 3 12 -2 12 -6 0 -12 -7 -15 -15z"/>
<path d="M3760 4570 c0 -5 5 -10 11 -10 5 0 7 5 4 10 -3 6 -8 10 -11 10 -2 0
-4 -4 -4 -10z"/>
<path d="M3825 4560 c3 -5 8 -10 11 -10 2 0 4 5 4 10 0 6 -5 10 -11 10 -5 0
-7 -4 -4 -10z"/>
<path d="M3751 4544 c6 -7 17 -10 25 -7 20 7 18 10 -11 15 -20 4 -23 2 -14 -8z"/>
<path d="M3605 4540 c-3 -5 -1 -10 4 -10 6 0 11 5 11 10 0 6 -2 10 -4 10 -3 0
-8 -4 -11 -10z"/>
<path d="M3740 4526 c0 -2 7 -9 15 -16 9 -7 15 -8 15 -2 0 5 -7 12 -15 16 -8
3 -15 4 -15 2z"/>
<path d="M3421 4504 c0 -11 3 -14 6 -6 3 7 2 16 -1 19 -3 4 -6 -2 -5 -13z"/>
<path d="M3846 4495 c-3 -8 -1 -15 4 -15 13 0 22 18 11 24 -5 3 -11 -1 -15 -9z"/>
<path d="M3666 4492 c-3 -5 1 -9 9 -9 8 0 12 4 9 9 -3 4 -7 8 -9 8 -2 0 -6 -4
-9 -8z"/>
<path d="M3838 4463 c6 -2 18 -2 25 0 6 3 1 5 -13 5 -14 0 -19 -2 -12 -5z"/>
<path d="M5130 4430 c-13 -8 -12 -10 3 -10 9 0 17 5 17 10 0 12 -1 12 -20 0z"/>
<path d="M5205 4430 c3 -5 8 -10 11 -10 2 0 4 5 4 10 0 6 -5 10 -11 10 -5 0
-7 -4 -4 -10z"/>
<path d="M3820 4419 c0 -5 5 -7 10 -4 6 3 10 8 10 11 0 2 -4 4 -10 4 -5 0 -10
-5 -10 -11z"/>
<path d="M750 4280 c14 -9 7 -14 -13 -11 -4 1 -10 -6 -13 -14 -3 -8 -10 -12
-15 -9 -5 3 -9 0 -9 -6 0 -6 -5 -8 -12 -4 -8 5 -7 1 2 -10 14 -17 15 -17 30 1
8 11 21 18 28 15 9 -3 7 -9 -7 -19 -23 -16 -28 -33 -9 -33 6 0 9 3 5 6 -3 4 4
15 16 25 18 15 19 20 8 28 -9 6 -10 11 -2 15 17 11 13 26 -6 26 -15 0 -16 -2
-3 -10z"/>
<path d="M825 4239 c-18 -8 -18 -9 3 -5 17 3 22 1 18 -9 -2 -7 3 -19 12 -27
15 -12 16 -11 4 4 -8 10 -9 19 -3 22 5 3 12 0 14 -6 4 -10 6 -10 6 -1 1 19
-31 32 -54 22z"/>
<path d="M890 4220 c0 -5 5 -10 11 -10 5 0 7 5 4 10 -3 6 -8 10 -11 10 -2 0
-4 -4 -4 -10z"/>
<path d="M815 4211 c-3 -5 -1 -12 4 -16 6 -3 8 -13 5 -23 -5 -14 -4 -14 4 -2
7 9 7 19 2 26 -6 6 -7 14 -3 17 3 4 4 7 0 7 -3 0 -8 -4 -12 -9z"/>
<path d="M780 4201 c-8 -6 -17 -8 -20 -6 -3 2 -6 -6 -7 -18 0 -12 1 -16 4 -9
3 6 10 9 16 5 7 -3 9 -3 5 2 -4 4 0 14 10 21 19 15 14 18 -8 5z"/>
<path d="M3170 4200 c-13 -8 -13 -10 2 -10 9 0 20 5 23 10 8 13 -5 13 -25 0z"/>
<path d="M910 4180 c6 -11 13 -20 16 -20 2 0 0 9 -6 20 -6 11 -13 20 -16 20
-2 0 0 -9 6 -20z"/>
<path d="M674 4179 c-9 -16 2 -22 21 -11 15 8 16 10 1 15 -8 3 -18 2 -22 -4z"/>
<path d="M3056 4153 c-6 -14 -5 -15 5 -6 7 7 10 15 7 18 -3 3 -9 -2 -12 -12z"/>
<path d="M3500 4151 c0 -11 10 -27 22 -35 l22 -16 -27 0 c-18 0 -30 -7 -35
-19 -4 -11 -11 -20 -16 -20 -13 -1 -17 -31 -4 -31 6 0 7 8 4 18 -5 14 -3 13
10 -3 15 -18 16 -18 10 -1 -5 15 -2 17 14 13 42 -11 67 65 32 96 -24 22 -32
21 -32 -2z"/>
<path d="M784 4136 c0 -15 6 -23 16 -21 8 1 20 -2 27 -7 7 -6 14 -5 19 3 4 7
3 9 -4 5 -6 -3 -13 -2 -17 4 -4 6 -11 8 -16 5 -8 -6 -13 8 -10 28 0 4 -3 7 -8
7 -5 0 -8 -11 -7 -24z"/>
<path d="M750 4135 c-10 -11 -9 -18 4 -30 14 -15 16 -15 16 -1 0 9 -5 16 -11
16 -8 0 -8 5 1 15 7 8 10 15 7 15 -2 0 -10 -7 -17 -15z"/>
<path d="M806 4063 c-6 -14 -5 -15 5 -6 7 7 10 15 7 18 -3 3 -9 -2 -12 -12z"/>
<path d="M873 4035 c0 -8 4 -15 9 -15 4 0 8 4 8 9 0 6 -4 12 -8 15 -5 3 -9 -1
-9 -9z"/>
<path d="M810 4021 c0 -25 6 -27 13 -6 4 8 2 17 -3 20 -6 4 -10 -3 -10 -14z"/>
<path d="M885 4000 c-3 -6 -3 -20 0 -31 6 -17 4 -20 -6 -13 -12 7 -12 5 0 -9
7 -9 24 -16 37 -15 29 3 28 2 7 19 -14 12 -16 12 -8 0 6 -10 4 -12 -4 -6 -7 4
-11 18 -8 31 5 26 -7 42 -18 24z"/>
<path d="M3430 3962 c0 -11 9 -22 21 -25 16 -4 20 -1 17 16 -4 28 -38 36 -38
9z"/>
<path d="M1646 3927 c3 -10 9 -15 12 -12 3 3 0 11 -7 18 -10 9 -11 8 -5 -6z"/>
<path d="M3440 3916 c0 -8 -5 -16 -12 -18 -6 -2 -12 -14 -13 -26 -1 -20 0 -20
14 -8 10 9 22 12 30 7 9 -6 10 -11 2 -15 -6 -4 -11 -2 -11 5 0 7 -2 10 -5 7
-3 -3 -3 -13 1 -22 6 -15 7 -15 19 1 7 10 11 21 9 25 -2 4 0 9 6 13 5 3 10 12
10 18 0 7 -5 4 -11 -6 -6 -9 -15 -15 -21 -11 -7 4 -7 9 0 13 6 4 4 11 -4 19
-12 10 -14 10 -14 -2z"/>
<path d="M3050 3771 c0 -5 -9 -11 -20 -14 -24 -6 -26 -22 -4 -31 8 -3 13 -2 9
3 -3 5 7 19 21 30 19 15 22 21 10 21 -9 0 -16 -4 -16 -9z"/>
<path d="M2960 3756 c-5 -5 -10 -19 -9 -30 0 -20 1 -20 9 2 5 12 16 22 25 22
8 0 15 4 15 8 0 12 -27 11 -40 -2z"/>
<path d="M3111 3714 c0 -11 3 -14 6 -6 3 7 2 16 -1 19 -3 4 -6 -2 -5 -13z"/>
<path d="M3004 3696 c15 -13 26 -30 26 -37 0 -12 2 -11 9 0 11 16 -24 61 -47
61 -7 0 -2 -11 12 -24z"/>
<path d="M3145 3681 c-3 -5 -2 -12 3 -15 5 -3 9 1 9 9 0 17 -3 19 -12 6z"/>
<path d="M3340 3651 c0 -5 7 -11 15 -15 8 -3 15 -1 15 3 0 5 -7 11 -15 15 -8
3 -15 1 -15 -3z"/>
<path d="M3065 3619 c-10 -15 3 -25 16 -12 7 7 7 13 1 17 -6 3 -14 1 -17 -5z"/>
<path d="M3392 3610 c0 -14 2 -19 5 -12 2 6 2 18 0 25 -3 6 -5 1 -5 -13z"/>
<path d="M1086 3587 c-16 -12 -16 -14 -3 -14 9 0 18 6 21 14 3 7 4 13 3 13 -2
0 -11 -6 -21 -13z"/>
<path d="M3067 3592 c-10 -2 -16 -9 -14 -15 2 -7 -2 -18 -10 -25 -15 -16 -9
-32 13 -32 8 0 12 5 9 10 -4 6 -11 7 -17 4 -6 -4 -8 -2 -5 4 9 14 49 3 40 -12
-3 -6 -3 -8 2 -4 4 4 14 3 21 -3 11 -9 15 -7 20 6 5 12 9 13 14 5 5 -7 9 -2
12 14 l5 25 -26 -20 c-15 -12 -27 -16 -29 -10 -2 6 -12 11 -21 11 -10 0 -18 7
-18 15 0 18 -1 18 31 5 31 -11 32 -10 9 10 -10 9 -26 14 -36 12z"/>
<path d="M3326 3583 c-6 -14 -5 -15 5 -6 7 7 10 15 7 18 -3 3 -9 -2 -12 -12z"/>
<path d="M3287 3579 c7 -7 15 -10 18 -7 3 3 -2 9 -12 12 -14 6 -15 5 -6 -5z"/>
<path d="M3370 3573 c0 -6 4 -14 9 -18 6 -3 8 -14 6 -25 -2 -12 0 -18 6 -15 5
4 9 12 9 19 0 16 -29 55 -30 39z"/>
<path d="M3345 3561 c-3 -5 -1 -13 5 -16 8 -5 7 -11 -1 -21 -6 -8 -8 -14 -4
-14 4 0 2 -6 -4 -13 -6 -8 -8 -17 -4 -20 3 -4 -2 -9 -11 -13 -9 -3 -16 -10
-16 -16 0 -5 5 -6 10 -3 6 3 10 0 10 -7 0 -7 6 -2 13 12 7 14 9 27 5 28 -16 7
3 21 20 15 14 -6 15 -4 5 9 -7 8 -10 18 -6 21 3 4 1 13 -5 20 -7 8 -9 17 -5
20 3 4 4 7 0 7 -3 0 -8 -4 -12 -9z"/>
<path d="M3170 3550 c0 -5 5 -10 10 -10 6 0 10 5 10 10 0 6 -4 10 -10 10 -5 0
-10 -4 -10 -10z"/>
<path d="M3213 3524 c-23 -26 -32 -47 -12 -27 6 6 19 9 28 6 14 -4 14 -3 1 6
-12 9 -11 11 10 12 17 1 20 3 7 6 -9 2 -15 9 -12 14 11 17 0 9 -22 -17z"/>
<path d="M3283 3526 c3 -8 2 -17 -4 -20 -5 -2 -4 -3 2 -2 15 3 21 36 7 36 -6
0 -8 -6 -5 -14z"/>
<path d="M3254 3488 c2 -18 -1 -28 -9 -28 -19 0 -6 -39 17 -51 14 -7 23 -8 30
-1 7 7 4 14 -10 21 -10 6 -22 7 -26 4 -9 -10 -7 12 2 23 5 5 5 20 1 34 -9 25
-9 25 -5 -2z"/>
<path d="M3305 3490 c-3 -11 -10 -20 -15 -20 -4 0 -10 -6 -13 -13 -3 -8 1 -14
9 -14 8 0 12 2 9 5 -2 3 5 18 16 33 11 16 16 29 10 29 -5 0 -13 -9 -16 -20z"/>
<path d="M3209 3488 c0 -2 -2 -11 -4 -21 -3 -15 -1 -16 11 -6 7 6 11 15 8 20
-5 9 -13 12 -15 7z"/>
<path d="M840 3470 c0 -5 5 -10 11 -10 5 0 7 5 4 10 -3 6 -8 10 -11 10 -2 0
-4 -4 -4 -10z"/>
<path d="M1055 3460 c3 -5 1 -10 -4 -10 -6 0 -11 -4 -11 -10 0 -13 21 -13 40
0 13 9 13 11 0 20 -19 13 -33 13 -25 0z"/>
<path d="M880 3449 c0 -5 5 -7 10 -4 6 3 10 8 10 11 0 2 -4 4 -10 4 -5 0 -10
-5 -10 -11z"/>
<path d="M850 3439 c0 -5 5 -7 10 -4 6 3 10 8 10 11 0 2 -4 4 -10 4 -5 0 -10
-5 -10 -11z"/>
<path d="M3219 3428 c-1 -7 -1 -16 0 -20 0 -4 -8 -10 -19 -13 -11 -4 -20 -11
-20 -16 0 -6 -6 -7 -12 -3 -7 4 -10 4 -6 -1 4 -4 3 -14 -3 -21 -9 -11 -5 -16
16 -24 33 -13 38 -13 30 0 -3 6 1 7 9 4 9 -3 16 -15 16 -26 0 -10 4 -17 10
-13 12 8 8 -48 -5 -57 -6 -5 -5 -8 4 -8 11 0 11 -3 1 -15 -7 -8 -9 -15 -4 -15
5 0 2 -5 -6 -11 -13 -9 -13 -10 0 -6 8 2 14 10 13 16 -2 6 2 11 7 11 6 0 10
-6 10 -12 0 -9 3 -8 10 2 13 21 24 5 11 -17 -6 -10 -11 -14 -11 -9 0 5 -6 3
-14 -3 -8 -6 -19 -10 -26 -9 -7 2 -14 -2 -17 -9 -3 -8 7 -9 39 -1 43 9 75 28
49 28 -10 0 -10 6 3 24 10 15 12 27 6 31 -6 3 -10 -2 -10 -11 0 -10 -3 -14 -7
-10 -11 11 -10 30 2 39 5 5 0 5 -13 2 -21 -6 -22 -5 -11 13 7 12 18 20 23 19
6 -1 10 6 8 16 -2 9 1 17 5 16 30 -5 52 2 47 16 -3 8 -2 20 2 27 10 15 12 68
4 73 -3 2 -6 -4 -7 -13 -3 -33 -8 -47 -23 -60 -8 -8 -9 -11 -2 -7 6 3 12 0 12
-7 0 -16 -37 -21 -45 -7 -4 5 -1 9 6 9 8 0 9 3 0 13 -11 14 -5 27 11 27 5 0 6
-5 2 -12 -4 -7 -3 -8 5 -4 6 4 9 12 6 17 -4 5 0 9 7 9 10 0 10 2 -1 9 -10 6
-20 3 -33 -12 -14 -15 -21 -18 -24 -9 -3 6 -10 12 -16 12 -5 0 -8 -6 -5 -12 6
-16 -10 -48 -24 -48 -6 0 -3 7 5 16 14 14 14 18 2 36 -8 11 -12 27 -9 34 3 8
2 14 -1 14 -3 0 -7 -6 -7 -12z m-4 -68 c-3 -5 -13 -10 -21 -10 -8 0 -12 5 -9
10 3 6 13 10 21 10 8 0 12 -4 9 -10z m72 -4 c-3 -7 0 -19 6 -25 8 -8 6 -11 -8
-11 -16 0 -17 -2 -4 -12 8 -7 12 -12 10 -11 -2 2 -10 -2 -16 -7 -9 -8 -14 -4
-17 15 -3 14 -1 28 4 31 4 3 5 10 2 16 -4 7 -2 8 4 4 7 -4 12 -2 12 3 0 6 3
11 6 11 3 0 4 -6 1 -14z m-7 -120 c0 -3 -4 -8 -10 -11 -5 -3 -10 -1 -10 4 0 6
5 11 10 11 6 0 10 -2 10 -4z"/>
<path d="M755 3350 c3 -5 8 -10 11 -10 2 0 4 5 4 10 0 6 -5 10 -11 10 -5 0 -7
-4 -4 -10z"/>
<path d="M1406 3326 c10 -8 21 -12 24 -10 5 6 -21 24 -34 24 -6 0 -1 -6 10
-14z"/>
<path d="M3210 3311 c0 -7 -5 -9 -12 -5 -7 5 -8 3 -3 -5 5 -9 10 -10 18 -2 6
6 8 14 4 18 -4 3 -7 1 -7 -6z"/>
<path d="M3324 3291 c4 -5 0 -12 -6 -15 -7 -3 -4 -5 6 -3 24 3 34 27 11 27 -9
0 -14 -4 -11 -9z"/>
<path d="M3325 3210 c-3 -5 -1 -10 4 -10 6 0 11 5 11 10 0 6 -2 10 -4 10 -3 0
-8 -4 -11 -10z"/>
<path d="M3192 3172 c-11 -25 -11 -25 4 -10 9 9 15 21 13 27 -2 6 -10 -2 -17
-17z"/>
<path d="M1630 3177 c0 -9 -5 -17 -11 -17 -5 0 -7 5 -3 12 4 7 3 8 -4 4 -20
-12 -2 -34 34 -40 19 -4 42 -2 52 4 14 9 13 10 -8 4 -23 -6 -24 -6 -10 12 14
18 14 18 -8 0 -13 -11 -23 -14 -23 -8 -3 26 -4 31 -11 38 -5 4 -8 0 -8 -9z"/>
<path d="M3164 3181 c3 -5 -1 -14 -9 -21 -19 -16 -19 -30 0 -30 8 0 15 6 15
14 0 8 3 21 6 30 3 9 1 16 -6 16 -6 0 -9 -4 -6 -9z"/>
<path d="M3115 3140 c-3 -5 -1 -10 4 -10 6 0 11 5 11 10 0 6 -2 10 -4 10 -3 0
-8 -4 -11 -10z"/>
<path d="M3061 3118 c-7 -11 -7 -18 -1 -18 5 0 10 5 10 10 0 6 7 10 15 10 8 0
15 4 15 8 0 16 -27 9 -39 -10z"/>
<path d="M3226 3132 c-2 -4 -1 -14 5 -22 7 -12 9 -10 9 8 0 23 -5 28 -14 14z"/>
<path d="M3266 3115 c4 -20 3 -26 -4 -17 -7 11 -10 9 -15 -7 -3 -12 -1 -24 4
-27 5 -3 9 0 9 6 0 6 4 9 9 5 5 -3 12 -1 16 5 4 6 11 8 16 5 5 -4 9 -1 9 5 0
7 -6 10 -12 7 -7 -2 -18 8 -25 22 l-12 26 5 -30z"/>
<path d="M3204 3108 c3 -16 0 -28 -5 -28 -5 0 -9 -4 -9 -9 0 -5 8 -8 18 -6 9
1 12 0 6 -2 -7 -2 -10 -14 -7 -26 4 -22 4 -22 -12 -2 -9 11 -14 30 -12 43 2
12 0 25 -4 28 -9 5 -12 -7 -10 -36 0 -10 -1 -11 -5 -2 -9 20 -27 14 -21 -9 4
-16 3 -18 -9 -8 -8 6 -14 18 -14 26 0 8 -4 12 -8 9 -4 -2 -14 0 -22 6 -12 8
-12 9 2 4 10 -3 20 -1 24 5 10 17 -1 19 -29 4 -14 -7 -35 -11 -47 -8 -11 3
-26 0 -34 -6 -7 -6 -21 -9 -30 -5 -11 4 -16 1 -16 -14 0 -11 -7 -33 -15 -48
-9 -18 -15 -23 -15 -12 0 9 5 20 10 23 15 9 12 22 -5 22 -8 0 -11 -5 -8 -10 4
-6 0 -8 -10 -4 -10 3 -17 2 -17 -3 0 -5 -12 -15 -27 -22 -16 -7 -29 -23 -31
-35 -2 -13 -13 -24 -28 -27 -19 -5 -24 -11 -19 -26 4 -12 2 -20 -5 -20 -6 0
-8 5 -4 12 5 8 2 9 -12 4 -10 -5 -24 -9 -31 -9 -7 0 -11 -3 -9 -6 4 -9 -42
-50 -48 -43 -3 3 -7 0 -7 -6 -1 -7 -2 -17 -3 -24 0 -6 -8 -13 -16 -15 -13 -4
-13 -3 0 6 13 9 13 11 -1 11 -24 0 -30 -11 -16 -28 9 -12 9 -14 0 -9 -7 5 -26
1 -43 -8 -16 -8 -32 -14 -34 -13 -2 2 -13 -5 -23 -15 -11 -9 -23 -14 -28 -10
-4 5 -5 2 -1 -4 4 -7 2 -13 -4 -13 -6 0 -8 -5 -4 -12 4 -7 3 -8 -5 -4 -14 9
-59 -25 -55 -42 1 -7 0 -8 -3 -2 -6 13 -33 13 -33 0 0 -5 -11 -12 -25 -16 -14
-3 -25 -10 -25 -15 0 -5 -9 -9 -20 -9 -11 0 -20 -4 -20 -8 0 -5 -18 -17 -41
-27 -87 -40 -128 -107 -73 -121 19 -5 51 6 127 44 56 28 114 54 130 58 15 3
27 10 27 16 0 5 4 7 9 4 16 -10 88 38 83 54 -3 9 2 7 11 -4 14 -19 16 -19 40
-3 15 9 33 14 43 10 12 -4 15 -3 10 5 -5 8 1 12 16 12 13 0 30 6 37 13 11 10
12 9 6 -1 -6 -11 -3 -12 13 -3 12 6 24 16 27 21 3 6 12 10 18 10 7 0 3 -7 -7
-15 -26 -19 -13 -19 24 0 17 9 30 12 30 8 1 -5 10 3 20 16 11 13 20 18 20 11
0 -12 10 -11 55 5 16 5 17 5 5 -4 -8 -6 -10 -11 -5 -11 11 0 37 15 36 21 0 2
2 15 6 27 4 17 8 20 14 11 4 -8 1 -17 -8 -24 -11 -9 -13 -14 -5 -19 7 -4 12
-2 12 5 0 10 3 10 12 1 15 -15 28 -15 28 -1 0 5 -4 7 -10 4 -23 -14 -8 4 17
20 21 14 25 14 20 3 -4 -11 2 -14 21 -12 15 1 29 3 32 4 3 1 17 1 31 0 15 0
33 5 41 13 10 10 20 12 31 6 21 -12 87 14 87 35 0 9 -7 16 -15 16 -8 0 -15 5
-15 11 0 5 5 7 11 4 6 -4 16 0 22 9 7 9 24 17 38 18 17 1 25 7 22 15 -3 7 -9
13 -15 13 -5 0 -6 -4 -3 -10 3 -5 0 -10 -8 -10 -7 0 -14 7 -14 15 0 8 5 15 10
15 6 0 7 3 4 6 -4 4 3 21 14 38 l21 31 -25 -29 c-14 -16 -29 -26 -33 -23 -5 3
-9 -5 -9 -18 0 -13 5 -21 10 -18 6 3 2 -2 -7 -12 -10 -11 -21 -16 -25 -12 -3
4 -2 12 4 18 13 13 6 37 -14 57 -7 8 -11 18 -7 23 3 5 2 9 -3 8 -23 -4 -33 3
-33 22 0 15 5 19 16 15 10 -4 13 -2 8 6 -5 7 -3 8 6 3 10 -6 9 -11 -6 -23 -18
-13 -18 -14 4 -7 14 4 22 2 22 -5 0 -7 7 -10 15 -6 8 3 15 1 15 -3 0 -5 -5
-11 -12 -13 -9 -3 -9 -6 0 -12 7 -4 12 -2 12 4 0 6 5 8 12 4 8 -5 9 -2 5 10
-5 14 -3 17 8 12 9 -3 15 0 15 10 0 11 -6 15 -17 11 -45 -12 -47 -12 -48 13 0
19 -5 24 -20 22 -11 -2 -24 -5 -30 -5 -5 -1 -9 7 -10 19 0 11 -8 31 -17 45
l-18 24 4 -27z m-174 -43 c0 -1 -8 -12 -19 -23 -18 -21 -51 -30 -51 -14 1 18
19 34 33 29 11 -4 14 -1 10 9 -4 10 0 12 11 8 9 -3 16 -7 16 -9z m41 -4 c-9
-6 -10 -11 -3 -15 6 -4 15 2 21 11 5 10 12 15 16 12 3 -4 -1 -14 -10 -23 -12
-12 -21 -13 -34 -6 -10 5 -21 6 -25 2 -4 -3 -4 1 0 11 3 9 10 15 14 12 5 -3
12 0 15 6 4 5 10 8 13 4 4 -3 0 -10 -7 -14z m160 -44 c-5 -12 -7 -30 -5 -40 3
-20 32 -46 52 -47 15 0 15 -10 1 -30 -9 -12 -10 -12 -5 4 5 14 2 17 -9 12 -9
-3 -13 -2 -10 4 3 5 -4 14 -15 20 -11 6 -20 7 -20 3 0 -4 -4 -3 -8 3 -5 8 -13
4 -25 -12 -17 -23 -17 -24 3 -24 12 0 18 5 15 10 -3 6 -1 10 4 10 6 0 11 -5
11 -11 0 -5 4 -8 10 -4 5 3 5 -7 -1 -25 -6 -17 -18 -30 -27 -30 -14 0 -15 2
-3 9 25 16 22 38 -5 33 -13 -2 -21 -9 -17 -15 3 -5 1 -7 -5 -3 -5 3 -13 0 -15
-6 -4 -9 -6 -10 -6 -1 -1 6 3 14 9 18 5 3 7 12 3 20 -3 8 0 15 6 15 6 0 11 5
11 11 0 5 -4 8 -9 5 -5 -3 -15 2 -22 11 -12 15 -12 16 1 8 21 -13 39 -15 46
-4 3 5 11 6 17 2 7 -4 6 0 -2 10 -7 9 -16 15 -20 13 -4 -3 -13 -1 -21 5 -11 6
-12 9 -2 9 7 0 10 5 7 10 -3 6 -2 10 4 10 5 0 13 -5 16 -10 9 -15 25 -2 25 21
0 11 4 18 10 14 5 -3 6 -15 1 -28z m-79 9 c10 5 10 4 2 -5 -12 -13 -44 -5 -44
11 0 6 6 5 15 -2 8 -6 20 -8 27 -4z m-43 -24 c-5 -2 -7 -8 -4 -12 3 -5 0 -12
-6 -16 -8 -4 -9 -3 -5 4 5 8 0 12 -13 12 -12 0 -21 4 -21 10 0 5 7 7 15 4 10
-4 15 0 15 10 0 14 2 15 14 4 8 -7 10 -15 5 -16z m-68 -15 c9 -20 9 -20 -4 -4
-16 19 -32 24 -21 5 4 -7 3 -8 -4 -4 -7 4 -12 1 -13 -6 0 -10 -2 -11 -6 0 -4
10 -8 10 -20 1 -11 -10 -14 -10 -11 2 7 31 64 36 79 6z m224 -17 c3 -5 -1 -10
-10 -10 -9 0 -13 5 -10 10 3 6 8 10 10 10 2 0 7 -4 10 -10z m-155 -20 c0 -5
-4 -10 -10 -10 -5 0 -10 5 -10 10 0 6 5 10 10 10 6 0 10 -4 10 -10z m31 -17
c12 -14 12 -16 0 -8 -11 6 -13 4 -8 -7 6 -17 -16 -19 -30 -3 -4 4 -2 5 5 1 11
-6 17 5 13 27 -2 12 6 8 20 -10z m-287 -22 c3 -5 0 -14 -7 -19 -10 -8 -13 -6
-14 9 -2 19 11 26 21 10z m-74 -24 c8 -3 3 -5 -11 -4 -18 1 -25 6 -21 15 2 7
8 9 11 4 3 -5 13 -12 21 -15z m351 -30 c-10 -9 -11 -8 -5 6 3 10 9 15 12 12 3
-3 0 -11 -7 -18z m136 -9 c2 -17 0 -19 -7 -8 -5 8 -6 18 -4 22 8 12 10 10 11
-14z m-94 -33 c-3 -9 -8 -14 -10 -11 -3 3 -2 9 2 15 9 16 15 13 8 -4z m-57
-24 c-4 -6 -12 -11 -18 -11 -7 0 -7 4 1 13 6 8 9 16 7 19 -1 3 1 2 7 -2 5 -5
6 -13 3 -19z m144 25 c0 -2 -8 -10 -17 -17 -16 -13 -17 -12 -4 4 13 16 21 21
21 13z m-700 -56 c0 -5 -5 -10 -11 -10 -5 0 -7 5 -4 10 3 6 8 10 11 10 2 0 4
-4 4 -10z m-69 -77 c13 -16 12 -17 -3 -4 -17 13 -22 21 -14 21 2 0 10 -8 17
-17z"/>
<path d="M3370 3123 c8 -3 22 -10 32 -14 10 -6 18 -4 21 5 4 9 -5 13 -31 14
-21 0 -30 -2 -22 -5z"/>
<path d="M3135 3100 c3 -5 10 -10 16 -10 5 0 9 5 9 10 0 6 -7 10 -16 10 -8 0
-12 -4 -9 -10z"/>
<path d="M3366 3102 c-3 -6 -1 -14 5 -17 15 -10 25 3 12 16 -7 7 -13 7 -17 1z"/>
<path d="M748 3083 c-3 -13 -2 -23 4 -23 6 0 8 -8 6 -17 -2 -10 4 -26 14 -35
13 -13 18 -14 18 -5 0 8 -3 17 -7 21 -5 4 -13 24 -19 44 -9 33 -11 34 -16 15z"/>
<path d="M3413 3067 c3 -20 1 -25 -8 -17 -6 5 -15 7 -18 3 -4 -3 -7 -2 -7 3 0
5 -10 11 -22 11 -16 2 -19 0 -10 -6 8 -5 14 -12 14 -17 0 -5 4 -18 9 -29 5
-14 8 -15 8 -4 1 8 -5 21 -11 28 -11 11 -10 13 5 7 10 -3 22 -6 27 -6 5 0 16
-8 26 -17 16 -16 16 -16 10 5 -6 17 -3 22 9 22 9 0 13 5 10 11 -4 6 -9 8 -13
5 -3 -3 -11 2 -19 12 -13 15 -14 14 -10 -11z"/>
<path d="M3305 3050 c2 -25 11 -34 24 -26 7 5 7 13 -2 26 -15 25 -24 25 -22 0z"/>
<path d="M3391 2975 c0 -5 4 -17 9 -25 7 -11 10 -11 10 -2 0 7 5 10 12 6 7 -4
8 -3 4 5 -4 6 -11 9 -16 6 -4 -3 -11 1 -13 7 -3 7 -6 9 -6 3z"/>
<path d="M3466 2956 c10 -8 21 -12 24 -10 5 6 -21 24 -34 24 -6 0 -1 -6 10
-14z"/>
<path d="M3393 2923 c-19 -7 -16 -20 8 -26 15 -4 18 -2 10 7 -6 7 -8 16 -4 19
7 8 4 8 -14 0z"/>
<path d="M3428 2908 c2 -10 6 -18 7 -18 1 0 5 8 7 18 3 11 0 19 -7 19 -7 0
-10 -8 -7 -19z"/>
<path d="M3470 2892 c-8 -9 -14 -20 -12 -24 1 -5 -2 -8 -8 -8 -5 0 -10 5 -10
12 0 6 -7 3 -15 -8 -10 -12 -14 -14 -12 -4 2 8 2 12 0 9 -2 -4 -12 -5 -22 -2
-10 3 -22 -1 -26 -8 -5 -8 -4 -10 3 -5 7 4 12 3 12 -3 0 -5 -6 -12 -12 -14 -8
-3 -6 -6 5 -6 9 -1 17 6 17 14 0 12 3 13 19 3 11 -7 18 -15 15 -19 -5 -9 18
-17 34 -12 10 4 8 9 -5 19 -10 8 -13 14 -8 13 6 -1 18 -1 29 0 15 1 16 4 7 15
-9 11 -9 15 0 18 7 2 10 9 8 15 -3 7 -10 5 -19 -5z"/>
<path d="M810 2880 c0 -5 5 -10 11 -10 5 0 7 5 4 10 -3 6 -8 10 -11 10 -2 0
-4 -4 -4 -10z"/>
<path d="M3320 2855 c-9 -10 -9 -15 -1 -15 6 0 10 -3 10 -7 -1 -5 -1 -14 0
-22 2 -23 12 -6 17 28 6 33 -6 40 -26 16z"/>
<path d="M810 2845 c0 -7 -10 -17 -21 -20 -16 -5 -18 -9 -9 -15 7 -4 10 -15 7
-24 -3 -8 -2 -18 3 -21 5 -3 7 -13 5 -23 -2 -13 4 -17 31 -17 18 0 36 5 38 12
3 8 -1 10 -12 6 -14 -5 -15 -3 -4 8 13 14 16 68 4 85 -12 18 -42 25 -42 9z"/>
<path d="M3780 2830 c6 -11 13 -20 16 -20 2 0 0 9 -6 20 -6 11 -13 20 -16 20
-2 0 0 -9 6 -20z"/>
<path d="M3750 2830 c0 -5 5 -10 11 -10 5 0 7 5 4 10 -3 6 -8 10 -11 10 -2 0
-4 -4 -4 -10z"/>
<path d="M874 2702 c4 -7 3 -12 -2 -12 -6 0 -8 -10 -4 -22 4 -16 2 -19 -8 -13
-10 6 -12 3 -8 -13 4 -15 2 -19 -9 -15 -9 4 -13 0 -11 -8 1 -8 -2 -15 -7 -16
-6 -2 -10 1 -10 6 0 5 -3 12 -7 15 -5 3 -6 3 -3 0 2 -4 -3 -13 -11 -21 -13
-14 -13 -18 3 -36 10 -11 13 -17 6 -14 -6 4 -16 0 -21 -9 -16 -28 -45 -10 -38
23 3 16 1 35 -5 43 -8 12 -9 10 -4 -7 4 -16 2 -22 -7 -20 -7 2 -10 2 -5 0 13
-8 7 -43 -8 -44 -8 -1 -21 -2 -27 -3 -7 -1 -13 -11 -12 -23 0 -13 -4 -19 -10
-16 -20 13 -57 9 -51 -5 3 -8 0 -12 -7 -9 -7 2 -12 10 -11 16 2 6 -6 11 -18
11 -13 0 -18 4 -13 12 4 7 3 8 -4 4 -7 -4 -12 -16 -12 -27 0 -10 -4 -19 -10
-19 -5 0 -10 -5 -10 -11 0 -8 5 -8 15 1 9 7 25 10 42 5 21 -5 24 -8 12 -16
-11 -7 -11 -9 4 -9 12 0 16 -4 11 -12 -4 -7 -3 -10 1 -5 5 4 16 0 26 -9 12
-11 19 -12 24 -4 5 8 11 8 21 -1 8 -6 27 -9 43 -7 18 3 28 0 24 -5 -4 -6 3 -8
15 -5 12 4 24 2 27 -2 3 -5 13 -9 23 -8 16 0 181 -10 192 -12 29 -5 360 -3
360 2 0 4 12 3 26 -2 32 -13 57 -13 49 0 -3 5 -12 7 -20 3 -8 -3 -15 -1 -15 5
0 5 -19 13 -42 16 -24 3 -52 8 -63 10 -11 2 -31 5 -44 5 -17 1 -22 5 -17 17 5
14 4 15 -9 4 -11 -9 -15 -9 -15 -1 0 7 -9 22 -21 34 -14 15 -20 17 -19 7 5
-37 0 -43 -20 -20 -11 12 -17 27 -13 33 4 6 1 7 -6 3 -18 -12 -61 -15 -67 -5
-2 4 -11 6 -19 3 -9 -4 -18 1 -21 11 -6 14 -9 12 -24 -10 -12 -19 -19 -23 -23
-13 -4 9 -6 8 -6 -3 -1 -9 -8 -20 -17 -23 -10 -4 -13 -2 -8 6 5 7 0 9 -14 6
-12 -4 -20 -2 -16 3 12 20 -8 28 -28 10 -21 -20 -49 -18 -45 2 1 7 -9 11 -23
10 -19 -1 -26 4 -26 17 0 12 6 17 18 15 16 -3 17 -1 6 18 -11 21 -10 21 7 7
10 -8 16 -10 13 -5 -4 6 0 19 8 30 8 10 14 15 14 10 0 -5 8 2 17 15 21 30 22
50 5 68 -7 8 -10 17 -7 22 3 5 0 12 -6 16 -8 4 -9 3 -5 -4z m-169 -203 c0 -15
-4 -25 -8 -22 -5 3 -6 11 -3 19 3 8 1 14 -4 14 -6 0 -10 4 -10 8 0 5 6 9 13 9
7 0 13 -12 12 -28z m330 -9 c3 -5 -1 -10 -10 -10 -9 0 -13 5 -10 10 3 6 8 10
10 10 2 0 7 -4 10 -10z m-204 -25 c5 4 6 -1 2 -10 -5 -13 -7 -14 -14 -3 -5 7
-8 18 -8 23 0 6 3 4 6 -3 2 -6 9 -10 14 -7z m279 6 c0 -5 -7 -11 -14 -14 -10
-4 -13 -1 -9 9 6 15 23 19 23 5z m21 -14 c-10 -9 -11 -8 -5 6 3 10 9 15 12 12
3 -3 0 -11 -7 -18z"/>
<path d="M761 2583 c0 -6 -4 -20 -7 -30 -5 -14 -4 -15 5 -7 7 7 11 20 8 30 -3
11 -5 14 -6 7z"/>
<path d="M3580 2533 c8 -13 20 -19 29 -15 13 5 13 6 0 10 -7 3 -20 10 -28 16
-12 9 -12 8 -1 -11z"/>
<path d="M3646 2541 c-4 -5 3 -7 14 -4 23 6 26 13 6 13 -8 0 -17 -4 -20 -9z"/>
<path d="M3769 2537 c9 -12 8 -16 -4 -21 -8 -3 -15 -11 -15 -17 0 -8 4 -8 15
1 8 7 15 9 15 4 0 -4 5 -3 11 3 14 14 54 5 75 -18 9 -10 25 -19 35 -19 10 0
23 -8 28 -17 10 -17 10 -17 11 0 0 9 -4 17 -10 17 -5 0 -9 5 -7 12 1 6 -12 14
-28 18 -17 4 -42 14 -55 22 -14 9 -38 19 -54 22 -25 6 -28 5 -17 -7z"/>
<path d="M4180 2520 c-9 -17 -7 -20 17 -26 16 -3 35 -8 43 -11 8 -3 24 -8 35
-10 10 -2 22 -8 26 -15 4 -6 12 -7 18 -4 15 10 14 39 -1 33 -7 -2 -17 2 -23 9
-5 7 -22 15 -37 18 -14 2 -35 9 -47 15 -17 9 -22 8 -31 -9z"/>
<path d="M635 2520 c-3 -5 -2 -10 4 -10 5 0 13 5 16 10 3 6 2 10 -4 10 -5 0
-13 -4 -16 -10z"/>
<path d="M1075 2520 c-3 -5 -1 -10 4 -10 6 0 11 5 11 10 0 6 -2 10 -4 10 -3 0
-8 -4 -11 -10z"/>
<path d="M3487 2500 c4 -13 -2 -20 -19 -23 -22 -4 -22 -4 -1 -6 27 -1 51 34
29 42 -9 4 -12 0 -9 -13z"/>
<path d="M3535 2510 c-11 -5 -15 -9 -10 -10 6 -1 18 -3 27 -5 9 -2 19 3 22 11
6 16 -9 17 -39 4z"/>
<path d="M3975 2504 c50 -50 145 -73 145 -36 0 15 -7 18 -41 17 -33 -1 -43 2
-47 17 -3 13 -14 18 -39 18 -32 0 -33 -1 -18 -16z"/>
<path d="M467 2490 c7 -27 21 -34 38 -20 19 16 19 27 0 27 -8 0 -12 -4 -9 -8
2 -4 0 -11 -6 -14 -6 -4 -10 -3 -9 2 3 18 -1 33 -10 33 -5 0 -7 -9 -4 -20z"/>
<path d="M870 2498 c0 -4 7 -8 15 -8 8 0 15 4 15 8 0 5 -7 9 -15 9 -8 0 -15
-4 -15 -9z"/>
<path d="M950 2495 c-8 -9 -8 -15 -2 -15 12 0 26 19 19 26 -2 2 -10 -2 -17
-11z"/>
<path d="M3457 2499 c7 -7 15 -10 18 -7 3 3 -2 9 -12 12 -14 6 -15 5 -6 -5z"/>
<path d="M445 2480 c-3 -5 -1 -10 4 -10 6 0 11 5 11 10 0 6 -2 10 -4 10 -3 0
-8 -4 -11 -10z"/>
<path d="M4386 2473 c-6 -14 -5 -15 5 -6 7 7 10 15 7 18 -3 3 -9 -2 -12 -12z"/>
<path d="M3328 2469 c-7 -4 -10 -11 -6 -14 8 -8 48 4 48 14 0 10 -26 10 -42 0z"/>
<path d="M4139 2469 c-9 -48 -9 -48 29 -56 20 -4 43 -6 50 -5 6 2 12 -2 12 -8
0 -6 5 -8 10 -5 6 3 17 -1 26 -9 19 -20 54 -21 54 -2 0 24 -49 48 -126 62 -16
3 -34 10 -41 16 -7 6 -13 9 -14 7z"/>
<path d="M5086 2451 c-4 -5 3 -7 14 -4 23 6 26 13 6 13 -8 0 -17 -4 -20 -9z"/>
<path d="M5001 2437 c-13 -16 -4 -50 11 -41 6 4 5 10 -3 16 -10 7 -8 8 9 5 17
-4 22 -1 20 10 -4 22 -22 27 -37 10z"/>
<path d="M4890 2421 c-15 -28 -12 -35 6 -17 22 22 41 20 49 -5 5 -15 9 -18 15
-9 6 9 10 8 19 -6 6 -11 11 -13 11 -6 0 19 -50 62 -71 62 -10 0 -23 -9 -29
-19z"/>
<path d="M3195 2399 c-4 -6 -13 -8 -21 -5 -7 3 -16 1 -20 -5 -3 -6 -12 -8 -20
-5 -7 3 -16 1 -19 -4 -3 -4 -16 -7 -30 -6 -13 2 -22 0 -20 -4 5 -8 -88 -40
-118 -40 -11 0 -29 -7 -39 -17 -14 -13 -18 -13 -18 -2 -1 10 -3 9 -11 -3 -5
-9 -16 -15 -23 -12 -7 3 -20 -1 -28 -9 -24 -24 -72 -45 -96 -41 -14 3 -21 0
-17 -6 3 -5 2 -10 -4 -10 -5 0 -12 6 -14 13 -3 7 -6 4 -6 -7 -1 -16 -3 -17
-18 -5 -9 8 -14 9 -10 3 5 -10 -50 -37 -70 -33 -22 4 -34 -2 -27 -13 4 -7 -3
-4 -16 7 -13 11 -20 15 -17 9 5 -8 -7 -13 -33 -16 -29 -2 -39 0 -36 9 3 7 -1
10 -9 6 -8 -3 -12 -9 -9 -14 7 -12 -3 -11 -29 3 -21 10 -21 10 -7 -7 14 -17
14 -17 -7 -7 -12 7 -23 8 -25 3 -2 -6 -16 -12 -33 -15 -16 -2 -31 -5 -32 -6
-2 -2 -8 -3 -14 -4 -6 0 -18 -10 -26 -21 -12 -16 -14 -16 -10 -3 5 15 4 16
-13 6 -10 -7 -16 -16 -13 -22 4 -5 -3 -7 -15 -4 -12 4 -20 2 -17 -2 5 -9 -18
-26 -40 -30 -5 -1 -12 -4 -15 -7 -3 -4 1 -3 8 1 6 4 12 2 12 -3 0 -6 -4 -11
-10 -11 -23 0 -38 -56 -33 -125 10 -158 4 -175 -70 -221 -50 -31 -63 -46 -123
-144 -25 -42 -58 -84 -74 -95 -16 -11 -27 -21 -25 -24 8 -8 -65 -52 -76 -46
-5 4 -21 0 -34 -9 -14 -9 -27 -16 -30 -16 -2 -1 -19 -14 -37 -31 -18 -16 -46
-36 -62 -44 -35 -18 -80 -20 -70 -3 5 7 3 8 -6 3 -10 -6 -9 -11 6 -22 17 -13
17 -14 -11 -7 -16 4 -31 11 -33 16 -2 4 -8 8 -14 8 -6 0 -3 -10 8 -22 l19 -22
-25 15 c-15 10 -33 13 -45 9 -12 -4 -23 -3 -27 4 -5 7 -8 5 -8 -6 0 -12 -5
-15 -17 -11 -13 5 -15 3 -9 -13 18 -43 18 -54 2 -54 -11 0 -14 -5 -10 -12 5
-7 3 -8 -6 -3 -8 5 -18 1 -26 -10 -13 -17 -14 -17 -23 6 -5 13 -10 17 -11 9 0
-13 -1 -13 -10 0 -8 13 -10 13 -10 -2 0 -9 5 -18 12 -20 13 -5 -20 -48 -37
-48 -5 0 -3 5 5 10 13 8 13 10 -2 10 -9 0 -19 6 -22 13 -3 6 -3 1 0 -11 5 -21
3 -23 -15 -17 -17 5 -21 2 -21 -16 0 -12 -3 -19 -7 -16 -3 4 -12 2 -19 -4 -9
-7 -19 -7 -33 1 -17 9 -21 8 -21 -5 0 -8 -5 -15 -11 -15 -5 0 -7 -5 -3 -12 4
-7 3 -8 -4 -4 -7 4 -12 13 -12 19 0 7 -12 13 -27 14 -26 2 -27 1 -6 -7 26 -11
22 -35 -8 -51 -15 -8 -19 -6 -19 6 0 9 4 14 9 11 5 -3 14 1 21 9 11 13 9 15
-11 13 -13 -2 -24 2 -24 9 0 7 -6 18 -14 25 -10 10 -12 10 -7 1 9 -16 -6 -17
-22 -1 -7 7 -12 8 -12 3 0 -6 -5 -3 -11 5 -10 13 -10 13 -6 -1 6 -19 -25 -40
-43 -29 -9 6 -7 10 9 15 11 3 21 11 21 17 0 6 -7 5 -17 -3 -15 -12 -16 -12
-10 3 4 12 2 15 -8 11 -8 -3 -13 -9 -10 -13 3 -5 1 -11 -4 -14 -5 -4 -7 6 -5
23 6 37 -16 46 -50 20 -20 -16 -25 -17 -20 -4 5 13 -36 65 -52 65 -13 0 -1
-17 22 -31 15 -9 22 -19 16 -22 -5 -4 -21 2 -35 13 l-25 20 -26 -25 c-28 -26
-41 -18 -32 21 5 18 2 24 -9 24 -12 0 -15 -6 -10 -20 5 -15 2 -20 -10 -20 -12
0 -15 5 -11 16 7 19 -19 60 -29 45 -3 -6 0 -14 9 -17 8 -3 12 -12 9 -20 -3 -8
-9 -12 -13 -9 -5 3 -7 -7 -5 -22 2 -24 1 -25 -10 -10 -6 9 -14 14 -17 12 -3
-3 -4 6 -4 19 1 14 5 28 9 32 4 4 7 12 7 18 0 6 -5 3 -11 -7 -8 -14 -14 -16
-25 -6 -7 6 -11 16 -8 21 4 6 10 5 15 -3 6 -10 8 -8 6 8 -2 12 -7 26 -12 30
-4 5 -5 1 0 -7 5 -8 4 -12 0 -7 -14 12 -13 48 2 54 7 3 13 9 13 15 0 5 -4 7
-9 4 -5 -3 -11 2 -14 13 -3 14 1 17 19 15 13 -1 22 2 18 7 -3 5 -11 9 -19 9
-8 0 -16 4 -19 9 -4 5 4 7 16 5 13 -2 17 -2 11 2 -7 3 -13 10 -13 15 0 6 5 7
10 4 9 -6 11 -1 14 38 1 6 -5 11 -12 9 -8 -1 -11 2 -7 8 5 8 11 8 20 0 16 -14
36 -5 30 13 -6 16 21 51 33 43 14 -8 22 30 9 43 -6 6 -8 11 -5 11 4 0 14 -7
22 -16 15 -14 16 -14 17 5 1 12 3 26 4 31 1 6 3 13 4 18 1 4 6 0 11 -8 9 -13
10 -13 10 0 1 9 6 6 14 -9 9 -16 16 -20 20 -12 4 7 2 18 -4 26 -9 11 -9 15 -1
15 24 0 9 18 -19 22 -24 4 -30 1 -32 -16 -2 -13 -12 -22 -26 -24 -16 -3 -25
-12 -29 -33 -5 -27 -7 -28 -19 -12 -7 10 -13 23 -14 28 0 6 5 3 10 -5 8 -12
10 -11 10 5 0 17 -6 21 -34 20 -38 -2 -41 12 -11 45 10 11 15 23 12 27 -4 3
-7 1 -7 -5 0 -19 -20 -14 -21 6 0 13 -3 12 -11 -5 -6 -13 -15 -23 -21 -23 -5
0 -4 7 3 15 12 14 7 20 -15 15 -5 -1 -1 8 10 19 14 17 21 19 28 9 6 -9 7 -8 4
4 -3 9 2 22 10 30 15 11 16 11 9 -7 -5 -13 -4 -17 3 -10 5 6 11 19 13 30 2 14
-2 19 -14 17 -20 -3 -24 14 -5 21 9 4 9 6 -1 6 -8 1 -10 6 -6 14 6 9 4 9 -7 1
-8 -6 -21 -13 -30 -17 -13 -4 -15 0 -11 21 5 23 6 24 12 7 6 -17 7 -17 13 -2
3 9 14 17 23 17 40 0 0 13 -46 15 -28 1 -54 6 -58 10 -4 5 -2 6 3 2 6 -3 17
-2 24 2 9 6 6 10 -11 14 -12 3 -25 5 -28 4 -9 -3 -38 27 -34 35 2 4 0 10 -6
13 -6 4 -9 2 -8 -3 3 -10 -1 -12 -24 -12 -10 0 -10 2 0 9 10 6 9 10 -7 14 -12
3 -19 2 -16 -2 2 -4 -2 -8 -10 -8 -8 0 -12 4 -9 9 3 4 -2 8 -10 8 -9 0 -16 7
-16 15 0 8 5 15 11 15 5 0 7 -5 4 -11 -4 -6 2 -5 13 2 11 7 19 20 17 29 -2 11
5 16 22 18 13 1 32 6 41 11 9 4 26 7 37 5 29 -4 46 14 38 44 -4 18 -3 23 6 17
9 -5 9 -2 0 13 -7 12 -17 18 -22 15 -5 -3 -3 -9 4 -14 11 -7 10 -9 -3 -9 -10
0 -18 5 -18 11 0 5 -4 8 -9 5 -5 -4 -11 0 -14 6 -3 10 -9 8 -24 -4 -22 -20
-43 -23 -43 -7 0 5 -4 7 -10 4 -6 -4 -7 1 -3 11 6 15 7 15 20 -2 10 -13 16
-15 23 -6 6 6 7 10 4 7 -4 -2 -13 2 -21 10 -16 17 -43 20 -43 5 0 -5 -8 -7
-18 -4 -16 5 -16 5 1 -9 15 -12 15 -16 3 -20 -8 -3 -17 -1 -20 6 -3 8 -5 8 -5
1 -1 -6 6 -17 15 -25 13 -10 17 -10 25 2 7 11 9 11 9 0 0 -8 6 -11 16 -7 8 3
13 2 10 -3 -3 -5 -22 -12 -43 -16 -26 -5 -33 -9 -23 -15 12 -7 12 -11 0 -25
-11 -14 -10 -17 8 -22 12 -3 22 -9 22 -14 0 -5 -7 -6 -15 -3 -11 4 -19 -4 -27
-27 -7 -19 -11 -38 -9 -44 8 -24 8 -41 1 -55 -5 -8 -11 -69 -15 -135 -4 -66
-9 -122 -10 -125 -2 -3 -6 -111 -10 -241 -5 -170 -4 -238 4 -243 6 -4 11 -1
12 6 1 7 4 3 7 -9 l7 -22 12 24 c6 14 7 23 2 19 -12 -7 -11 7 1 26 7 11 10 12
10 2 0 -10 4 -10 16 2 8 9 19 16 23 16 4 0 8 7 8 15 0 18 -13 20 -21 3 -3 -7
-4 3 -3 23 1 26 5 35 14 32 7 -3 13 -9 13 -15 0 -5 -4 -6 -10 -3 -5 3 -10 1
-10 -4 0 -11 15 -15 35 -11 5 1 18 2 27 3 10 1 18 7 18 14 0 7 5 13 10 13 6 0
9 -6 8 -12 -3 -15 -37 -37 -52 -34 -6 2 -8 1 -3 -1 4 -3 7 -16 7 -29 0 -13 5
-24 11 -24 5 0 8 -4 5 -8 -3 -5 5 -7 17 -6 12 1 26 3 31 3 5 1 3 8 -4 17 -8 8
-9 14 -4 13 5 -1 11 -1 14 1 3 1 15 3 28 6 20 4 22 2 11 -17 -10 -20 -9 -21 9
-17 13 4 19 1 16 -6 -2 -6 12 -29 32 -51 19 -22 33 -34 29 -27 -5 11 6 17 28
13 4 0 7 3 7 9 0 5 -6 10 -14 10 -12 0 -12 5 -3 30 13 35 27 39 27 9 0 -11 4
-18 9 -15 4 3 16 -3 25 -13 10 -10 25 -17 35 -14 9 2 23 -3 30 -11 8 -9 18
-16 23 -16 5 0 15 -6 23 -13 19 -20 74 -10 72 13 -1 11 -7 16 -15 13 -11 -5
-11 -7 0 -14 18 -12 -19 -6 -52 9 -17 7 -20 11 -8 11 9 1 20 -4 23 -9 4 -6 11
-8 16 -4 5 3 7 9 4 13 -2 5 6 8 18 7 12 0 23 -7 23 -13 3 -24 4 -25 18 -14 10
9 15 8 19 -3 4 -9 14 -12 28 -9 18 5 21 3 16 -11 -4 -9 -3 -14 2 -11 5 3 11
-3 13 -12 2 -14 13 -18 43 -18 42 0 67 13 57 30 -3 6 1 4 10 -3 11 -9 18 -10
23 -2 4 7 12 7 25 0 13 -7 21 -6 30 5 18 22 30 18 26 -7 -3 -13 -5 -23 -6 -23
-1 0 -4 -20 -6 -45 -3 -25 -7 -52 -11 -60 -3 -8 -7 -21 -9 -28 -1 -8 -10 -29
-19 -48 -9 -20 -14 -42 -11 -50 3 -8 2 -12 -3 -9 -5 3 -13 1 -16 -5 -4 -6 -3
-10 2 -9 19 3 30 -2 30 -16 0 -12 -3 -12 -15 -3 -12 10 -14 9 -10 -7 2 -13 10
-19 23 -17 11 2 17 1 13 -3 -4 -4 -3 -16 2 -25 11 -21 -3 -35 -42 -38 -22 -3
-26 0 -21 17 3 12 9 19 13 16 5 -3 12 -1 15 5 4 6 1 9 -7 8 -8 -2 -12 5 -10
19 2 12 -2 24 -7 28 -6 3 -9 0 -6 -7 3 -8 -2 -22 -11 -33 -8 -11 -13 -14 -9
-7 4 7 0 12 -9 12 -8 0 -16 -4 -18 -8 -9 -21 -249 -145 -305 -157 -38 -9 -89
-29 -95 -39 -5 -8 -8 -7 -8 2 0 7 -4 11 -9 8 -5 -4 -5 11 0 34 7 30 6 48 -5
68 -15 30 -73 66 -123 77 -17 3 -37 13 -43 21 -7 7 -16 11 -21 8 -5 -3 -9 0
-9 5 0 6 -6 11 -14 11 -8 0 -18 9 -21 21 -5 14 -13 19 -25 16 -14 -4 -17 0
-15 14 2 11 0 17 -4 14 -13 -7 -34 22 -25 36 4 7 3 9 -3 6 -6 -4 -13 2 -16 13
-9 33 -9 34 -26 48 -9 8 -11 11 -6 9 6 -3 10 5 10 18 0 34 -11 21 -23 -27 -10
-41 -30 -370 -25 -413 2 -11 3 -44 4 -72 1 -37 6 -53 15 -53 8 0 14 -6 14 -12
1 -16 21 18 24 40 2 9 8 18 14 20 14 4 35 -35 28 -54 -3 -8 -1 -14 4 -14 5 0
7 -7 4 -15 -4 -8 -1 -15 5 -15 6 0 11 3 11 8 0 11 73 13 80 2 10 -16 47 -23
163 -27 81 -4 112 -1 124 9 14 11 16 11 8 -2 -4 -8 6 -2 23 14 31 29 33 30 81
17 81 -21 149 -15 111 9 -14 9 -7 14 12 11 5 0 8 3 8 9 0 5 9 10 20 10 24 0
70 21 70 32 0 4 -9 8 -20 8 -11 0 -20 5 -20 11 0 5 6 7 12 4 7 -4 4 1 -7 10
-19 16 -19 16 10 9 16 -4 38 -15 48 -25 39 -36 60 9 25 51 -16 18 -47 27 -73
20 -5 -2 -18 -2 -28 -2 -15 1 -18 -4 -13 -24 4 -16 3 -23 -3 -20 -5 4 -12 2
-16 -4 -3 -5 1 -10 9 -10 8 0 18 -4 21 -10 7 -11 -43 -8 -62 3 -6 4 -14 1 -16
-5 -4 -8 -6 -7 -6 4 -1 9 12 22 29 30 36 15 41 32 6 18 -18 -6 -28 -5 -35 4
-9 11 -5 15 16 19 16 2 52 15 81 28 42 19 56 21 71 12 16 -10 18 -9 14 7 -4
17 -12 18 -61 14 -31 -2 -63 -11 -72 -19 -9 -8 -20 -15 -25 -15 -4 0 3 9 17
19 25 20 45 26 112 36 22 3 45 10 53 16 10 9 13 7 13 -5 0 -10 5 -14 11 -10 7
4 10 1 7 -7 -3 -8 -15 -13 -27 -13 -19 1 -21 -3 -17 -28 2 -16 12 -38 21 -48
19 -21 22 -104 6 -157 -11 -39 -8 -41 45 -39 47 2 74 19 69 44 -2 9 -4 20 -4
25 -1 4 -8 7 -18 7 -21 0 -9 13 15 15 23 1 22 20 -1 19 -11 0 -16 4 -13 13 3
8 -1 16 -9 19 -25 10 -17 24 14 24 16 0 35 -8 42 -17 12 -14 12 -15 0 -9 -8 5
-6 -2 5 -20 14 -20 15 -29 6 -32 -7 -2 -9 -8 -6 -13 3 -6 8 -24 11 -41 3 -23
1 -28 -9 -22 -7 4 -3 -4 10 -18 26 -29 -30 -23 532 -53 151 -8 316 -17 365
-20 50 -3 230 -12 400 -20 171 -8 344 -17 385 -20 274 -17 328 -18 351 -1 33
23 91 20 123 -5 22 -17 45 -22 136 -26 l109 -6 17 39 c45 104 50 132 27 151
-10 8 -13 12 -8 9 6 -2 17 -1 25 5 13 7 12 9 -2 9 -11 0 -16 6 -13 20 2 12 -2
20 -10 20 -8 0 -17 4 -20 10 -3 6 1 7 10 4 8 -4 22 -1 30 6 8 6 19 9 24 6 5
-4 12 -2 16 4 3 5 -1 10 -9 10 -9 0 -16 5 -16 11 0 5 5 7 10 4 6 -3 10 -2 10
2 0 5 -9 14 -20 21 -16 10 -20 10 -18 0 2 -7 -5 -12 -14 -10 -9 1 -19 -2 -23
-8 -3 -5 -1 -10 4 -10 6 0 11 -7 11 -15 0 -8 -6 -14 -12 -13 -8 2 -12 -6 -10
-21 2 -15 0 -21 -7 -16 -6 3 -9 10 -6 15 3 5 1 11 -4 15 -7 3 -7 15 -1 29 5
13 6 27 2 31 -4 4 -2 6 3 5 20 -4 30 1 17 9 -12 7 -15 23 -10 62 1 11 9 14 24
11 13 -2 22 -9 21 -14 -1 -6 5 -13 13 -15 13 -4 13 -3 0 6 -8 6 -10 11 -4 11
15 0 36 -25 28 -33 -3 -3 -13 -3 -22 1 -14 5 -15 4 -2 -10 24 -25 71 -1 68 36
-1 11 11 58 26 102 15 47 25 93 22 109 -3 15 -2 25 1 22 14 -15 45 52 106 234
37 108 75 232 86 275 10 44 28 99 39 124 12 25 23 56 26 70 3 14 17 67 32 118
27 89 27 95 13 135 -9 23 -15 50 -13 60 1 9 -1 17 -6 17 -4 0 -11 15 -14 33
-3 17 -8 42 -11 55 -2 13 0 20 6 16 17 -10 -3 49 -24 71 -15 16 -18 29 -13 70
4 37 2 57 -10 73 -21 30 -39 28 -65 -10 -12 -18 -30 -40 -38 -48 -22 -21 -85
-24 -101 -5 -7 8 -17 12 -23 8 -5 -3 -16 2 -24 12 -12 17 -13 17 -13 2 0 -15
-3 -16 -22 -5 -13 6 -32 12 -43 13 -11 0 -24 3 -30 6 -5 4 -19 5 -30 3 -10 -1
-25 2 -32 8 -7 6 -24 8 -38 6 -14 -3 -25 -1 -25 5 0 6 -3 8 -6 4 -3 -3 -16 -2
-28 3 -13 4 -29 4 -37 0 -9 -6 -20 -3 -33 8 -11 9 -16 11 -12 5 8 -14 -6 -18
-18 -6 -3 4 -21 7 -39 7 -17 1 -32 6 -32 13 0 6 -4 15 -9 20 -6 5 -6 2 -1 -6
6 -11 4 -13 -8 -8 -9 3 -19 1 -23 -5 -4 -7 -9 -6 -15 3 -11 18 -67 19 -73 2
-4 -9 -12 -10 -31 -3 -18 7 -25 6 -25 -3 0 -8 -3 -8 -9 2 -5 7 -11 9 -14 4 -3
-5 -28 -8 -56 -7 -27 2 -66 -2 -85 -8 -42 -13 -111 -78 -82 -78 10 0 14 4 10
12 -5 8 -2 9 9 5 10 -4 17 -1 17 5 0 6 3 9 6 6 3 -4 1 -15 -4 -25 -9 -16 -6
-18 36 -17 26 1 53 -1 59 -3 16 -6 6 -24 -10 -22 -20 4 -91 -13 -120 -28 -33
-17 -59 -11 -51 12 7 18 0 19 -27 5 -22 -13 -24 -3 -4 24 8 10 12 22 10 27 -3
4 21 34 53 66 47 46 74 64 133 86 41 15 92 28 114 28 22 1 50 4 62 7 l23 7
-28 30 c-29 31 -47 77 -35 89 10 10 12 56 2 56 -4 0 -11 -5 -14 -11z m-2828
-345 c-3 -3 -12 -4 -19 -1 -8 3 -5 6 6 6 11 1 17 -2 13 -5z m30 -16 c-3 -8 -6
-5 -6 6 -1 11 2 17 5 13 3 -3 4 -12 1 -19z m3101 8 c7 -4 12 -3 12 1 0 14 87
8 106 -8 11 -8 15 -9 10 -2 -5 10 4 12 36 9 24 -2 43 -5 43 -6 0 -1 13 -4 30
-6 16 -2 31 -8 33 -14 2 -5 8 -10 13 -10 6 0 7 5 3 12 -5 8 -2 9 12 4 37 -15
74 -25 74 -19 0 3 8 -1 18 -10 10 -10 21 -15 24 -12 2 3 5 -2 5 -10 0 -19 -10
-19 -47 0 -16 8 -36 12 -44 9 -9 -4 -23 -1 -30 5 -9 7 -17 8 -20 2 -3 -5 -15
-7 -27 -4 -15 4 -19 11 -15 27 4 18 3 19 -7 6 -7 -8 -21 -17 -32 -18 -11 -2
-25 -8 -30 -12 -14 -12 -51 -5 -48 8 2 6 -4 9 -13 5 -11 -4 -12 -8 -4 -13 19
-11 -42 -17 -78 -8 -18 5 -30 13 -27 18 3 4 -3 7 -12 5 -10 -2 -22 -4 -28 -5
-5 -1 -1 -5 10 -10 20 -8 19 -9 -1 -9 -12 -1 -27 6 -34 14 -10 12 -16 13 -26
4 -11 -9 -14 -8 -14 5 0 9 -5 16 -11 16 -5 0 -7 5 -3 11 5 8 10 6 16 -5 7 -12
13 -14 29 -6 24 13 25 27 2 33 -10 2 0 3 23 2 22 -1 46 -5 52 -9z m-138 -36
c0 -17 -29 -18 -42 -2 -12 16 -11 16 6 2 18 -14 19 -13 13 2 -4 12 -2 15 9 11
7 -3 14 -9 14 -13z m-530 -16 c0 -2 -9 -4 -20 -4 -11 0 -20 4 -20 9 0 5 9 7
20 4 11 -3 20 -7 20 -9z m545 -4 c-3 -5 -12 -10 -18 -10 -7 0 -6 4 3 10 19 12
23 12 15 0z m-326 -86 c-5 -6 -7 -19 -3 -28 3 -9 1 -16 -5 -16 -6 0 -11 -4
-11 -10 0 -5 8 -7 18 -4 9 4 4 -3 -11 -14 -17 -12 -24 -21 -17 -24 9 -3 10 -9
3 -23 -6 -11 -18 -36 -26 -55 l-15 -35 3 55 c7 89 11 109 31 132 11 12 13 18
5 13 -10 -6 -12 -4 -6 6 20 34 28 40 36 27 4 -7 4 -18 -2 -24z m36 -14 c3 -6
-1 -7 -9 -4 -18 7 -21 14 -7 14 6 0 13 -4 16 -10z m-2522 -109 c-5 -19 -26
-22 -40 -6 -4 4 -3 5 3 2 7 -4 17 0 24 8 16 20 19 19 13 -4z m-3 -37 c0 -8
-19 -13 -24 -6 -3 5 1 9 9 9 8 0 15 -2 15 -3z m-39 -37 c-10 -9 -11 -8 -5 6 3
10 9 15 12 12 3 -3 0 -11 -7 -18z m73 -116 c8 -12 -44 -66 -63 -66 -9 0 -23
-4 -31 -10 -13 -8 -13 -7 -1 9 8 10 23 15 33 13 10 -3 18 -1 18 4 0 5 -7 9
-15 9 -8 0 -15 5 -15 12 0 6 3 8 7 5 3 -4 15 1 26 10 11 10 17 12 13 6 -4 -7
-2 -13 3 -13 6 0 11 7 11 15 0 17 6 19 14 6z m-177 -312 c1 -9 -6 -24 -16 -33
-15 -14 -17 -14 -18 4 -1 11 3 22 8 25 5 4 7 10 5 14 -3 4 1 8 7 8 7 0 14 -8
14 -18z m978 -37 c-3 -3 -11 0 -18 7 -9 10 -8 11 6 5 10 -3 15 -9 12 -12z
m-914 -56 c-8 -9 -17 -13 -22 -11 -4 3 -12 -3 -18 -12 -8 -15 -12 -16 -23 -4
-8 8 -8 11 -1 7 6 -3 14 -2 18 4 3 5 -1 10 -9 10 -24 0 -19 13 12 31 22 13 29
14 41 3 12 -11 12 -16 2 -28z m263 -38 c1 -7 5 -20 10 -28 7 -12 6 -13 -4 -3
-8 7 -15 23 -17 35 -2 12 -1 19 3 16 3 -3 6 -12 8 -20z m-180 -34 c5 -14 4
-15 -9 -4 -17 14 -19 20 -6 20 5 0 12 -7 15 -16z m136 1 c-7 -9 -15 -13 -19
-10 -3 3 1 10 9 15 21 14 24 12 10 -5z m-113 -30 c0 -8 -4 -12 -9 -9 -5 3 -6
10 -3 15 9 13 12 11 12 -6z m170 -7 c-3 -8 -6 -5 -6 6 -1 11 2 17 5 13 3 -3 4
-12 1 -19z m223 3 c0 -9 -24 -21 -41 -21 -5 0 -9 5 -9 11 0 6 7 9 15 5 8 -3
15 -1 15 4 0 6 5 10 10 10 6 0 10 -4 10 -9z m26 -31 c0 -22 4 -42 9 -44 6 -3
2 -5 -7 -5 -11 -1 -18 6 -18 17 0 10 -6 24 -12 31 -11 11 -10 13 5 8 11 -4 16
-3 12 3 -6 9 1 30 10 30 1 0 2 -18 1 -40z m134 -17 c0 -19 -13 -9 -16 12 -1 8
2 13 7 9 5 -3 9 -12 9 -21z m-160 -3 c0 -5 -2 -10 -4 -10 -3 0 -8 5 -11 10 -3
6 -1 10 4 10 6 0 11 -4 11 -10z m225 -510 c-3 -5 -11 -10 -16 -10 -6 0 -7 5
-4 10 3 6 11 10 16 10 6 0 7 -4 4 -10z m10 -47 c-8 -17 -8 -17 -13 1 -3 15 -6
16 -12 5 -5 -7 -12 -11 -15 -7 -3 3 2 13 11 22 20 21 40 6 29 -21z m-18 -84
c2 -16 -1 -19 -9 -11 -5 5 -7 15 -4 21 10 15 12 14 13 -10z m23 -64 c0 -8 0
-17 0 -20 0 -3 -3 -6 -7 -7 -3 -2 -7 7 -8 20 -1 12 2 22 7 22 4 0 8 -7 8 -15z"/>
<path d="M3540 2040 c0 -5 5 -10 11 -10 5 0 7 5 4 10 -3 6 -8 10 -11 10 -2 0
-4 -4 -4 -10z"/>
<path d="M395 1269 c-4 -6 -5 -12 -2 -15 2 -3 7 2 10 11 7 17 1 20 -8 4z"/>
<path d="M441 1201 c-8 -6 -9 -11 -3 -15 6 -3 14 -1 17 5 9 14 2 20 -14 10z"/>
<path d="M3922 2401 c-11 -7 -11 -9 2 -14 10 -4 16 -1 16 8 0 17 -1 17 -18 6z"/>
<path d="M4943 2355 c-7 -21 4 -32 19 -17 9 9 9 12 -1 12 -7 0 -9 5 -6 10 3 6
4 10 0 10 -3 0 -8 -7 -12 -15z"/>
<path d="M4980 2352 c1 -15 26 -39 38 -35 19 7 14 19 -13 31 -14 6 -25 8 -25
4z"/>
<path d="M4883 2336 c9 -7 17 -21 17 -30 0 -14 4 -15 21 -5 l21 11 -23 16
c-30 20 -63 28 -36 8z"/>
<path d="M1595 2321 c3 -21 32 -22 38 0 4 14 0 18 -18 17 -13 -1 -22 -8 -20
-17z"/>
<path d="M2840 2326 c0 -2 8 -10 18 -17 15 -13 16 -12 3 4 -13 16 -21 21 -21
13z"/>
<path d="M2790 2300 c-8 -5 -12 -12 -9 -15 4 -3 12 1 19 10 14 17 11 19 -10 5z"/>
<path d="M2755 2280 c3 -5 8 -10 11 -10 2 0 4 5 4 10 0 6 -5 10 -11 10 -5 0
-7 -4 -4 -10z"/>
<path d="M530 2095 c0 -14 -4 -24 -8 -21 -5 3 -8 -4 -7 -14 1 -22 15 -40 15
-21 0 9 11 12 38 9 20 -3 48 -1 61 4 17 6 22 5 18 -4 -2 -7 3 -20 11 -28 14
-13 15 -12 9 3 -5 13 -3 16 6 10 22 -14 33 -11 34 9 2 17 0 18 -14 6 -14 -11
-15 -11 -8 1 6 11 4 13 -8 8 -10 -4 -20 0 -26 11 -6 10 -11 12 -11 5 0 -7 -7
-13 -15 -13 -9 0 -12 6 -9 18 5 14 4 14 -4 2 -6 -8 -8 -18 -5 -24 3 -5 1 -6
-5 -2 -7 4 -12 14 -12 22 0 14 -2 13 -16 0 -25 -26 -45 -21 -34 9 6 15 6 26 0
30 -6 4 -10 -6 -10 -20z"/>
<path d="M5145 2110 c-11 -5 -15 -9 -10 -10 6 0 2 -5 -8 -11 -9 -6 -15 -14
-12 -20 4 -5 -2 -6 -11 -2 -14 5 -16 3 -11 -12 6 -15 5 -16 -8 -5 -12 10 -15
10 -15 -3 0 -9 -11 -24 -25 -35 -13 -11 -21 -22 -18 -26 3 -3 1 -6 -5 -6 -7 0
-12 -10 -13 -22 0 -13 -3 -17 -6 -10 -3 8 -15 2 -34 -20 l-28 -33 27 -7 c25
-8 117 -19 172 -22 24 -1 25 0 26 89 1 50 -3 98 -8 109 -7 12 -7 16 0 12 5 -3
12 5 14 19 6 27 3 28 -27 15z m12 -74 c0 -15 -21 -16 -34 -1 -4 4 -3 5 4 1 6
-3 14 -2 18 4 8 14 12 13 12 -4z"/>
<path d="M550 2079 c0 -5 5 -7 10 -4 6 3 10 8 10 11 0 2 -4 4 -10 4 -5 0 -10
-5 -10 -11z"/>
<path d="M725 2049 c-4 -6 -4 -13 -1 -16 3 -4 6 0 6 7 0 9 7 7 23 -6 l22 -19
-19 23 c-22 25 -23 26 -31 11z"/>
<path d="M856 2037 c3 -10 9 -15 12 -12 3 3 0 11 -7 18 -10 9 -11 8 -5 -6z"/>
<path d="M2915 2022 c-3 -8 -1 -20 4 -25 7 -7 12 -5 17 6 3 9 10 14 15 11 5
-3 9 -1 9 4 0 17 -38 21 -45 4z"/>
<path d="M436 2022 c-3 -5 1 -9 9 -9 8 0 12 4 9 9 -3 4 -7 8 -9 8 -2 0 -6 -4
-9 -8z"/>
<path d="M380 2000 c0 -5 5 -10 11 -10 5 0 7 5 4 10 -3 6 -8 10 -11 10 -2 0
-4 -4 -4 -10z"/>
<path d="M1250 1989 c0 -5 10 -14 23 -19 14 -5 16 -9 7 -10 -8 -1 -4 -6 10
-10 39 -13 48 -11 53 8 4 16 5 16 6 0 1 -11 9 -18 22 -18 14 0 18 -4 12 -12
-4 -7 6 -4 22 6 22 14 26 15 17 4 -8 -10 -9 -19 -3 -22 5 -4 12 -2 16 4 9 14
-4 52 -16 45 -5 -3 -18 -1 -30 6 -15 8 -19 8 -15 0 4 -6 3 -11 -3 -11 -5 0
-13 5 -16 11 -4 6 -13 8 -20 5 -8 -3 -15 0 -17 5 -4 13 -68 21 -68 8z"/>
<path d="M1447 1930 c-7 -29 -7 -29 24 -32 13 -2 29 -9 35 -17 6 -8 18 -11 28
-8 10 4 19 1 22 -8 8 -21 44 -19 44 2 0 9 -3 13 -7 10 -3 -4 -15 0 -25 10 -10
9 -18 12 -18 8 0 -4 -9 0 -19 9 -11 10 -25 15 -30 11 -6 -3 -11 -1 -11 5 0 7
-6 10 -14 7 -9 -4 -16 1 -18 11 -3 13 -6 11 -11 -8z"/>
<path d="M450 1927 c0 -2 6 -10 14 -16 11 -9 16 -9 22 1 4 7 4 10 -1 6 -4 -4
-14 -3 -22 3 -7 6 -13 9 -13 6z"/>
<path d="M1614 1848 c-4 -7 -3 -8 4 -4 7 4 12 0 13 -11 0 -11 3 -13 6 -5 2 6
9 10 14 6 5 -3 9 -3 9 0 0 3 -9 10 -19 16 -14 7 -22 7 -27 -2z"/>
<path d="M600 1825 c-8 -9 -9 -15 -2 -15 6 0 14 5 17 10 4 6 12 4 21 -5 20
-20 44 -19 44 1 0 11 -6 13 -19 9 -11 -3 -22 -1 -26 5 -9 14 -20 13 -35 -5z"/>
<path d="M4835 1828 c-11 -6 -22 -14 -25 -17 -9 -11 -119 -61 -134 -61 -29 0
-27 -21 5 -48 18 -15 38 -32 43 -38 7 -8 19 -9 33 -3 14 5 23 5 24 -1 1 -6 2
-14 3 -20 1 -14 20 -14 24 -1 2 6 -2 11 -8 11 -10 0 -9 4 0 15 11 13 10 14 -2
10 -8 -3 -20 1 -27 9 -10 12 -7 13 22 6 32 -7 33 -6 29 19 -3 14 -9 32 -15 39
-14 18 -1 15 18 -4 15 -15 18 -15 32 -2 13 14 13 15 -4 14 -10 0 -18 4 -18 9
0 6 6 9 14 8 9 -1 10 2 2 10 -7 7 -5 14 7 23 24 18 4 37 -23 22z m-28 -113 c0
-8 -4 -15 -9 -15 -10 0 -11 14 -1 23 9 10 10 9 10 -8z"/>
<path d="M695 1800 c3 -5 8 -10 11 -10 2 0 4 5 4 10 0 6 -5 10 -11 10 -5 0 -7
-4 -4 -10z"/>
<path d="M725 1790 c-9 -15 26 -20 40 -6 12 11 10 14 -11 14 -13 0 -27 -4 -29
-8z"/>
<path d="M4191 1774 c0 -11 3 -14 6 -6 3 7 2 16 -1 19 -3 4 -6 -2 -5 -13z"/>
<path d="M641 1754 c0 -11 3 -14 6 -6 3 7 2 16 -1 19 -3 4 -6 -2 -5 -13z"/>
<path d="M891 1729 c-19 -12 -31 -25 -28 -33 4 -10 -3 -13 -23 -12 -24 2 -40
-9 -40 -28 0 -6 35 0 53 8 10 5 21 6 24 2 4 -3 -1 -6 -9 -6 -11 0 -14 -6 -11
-21 4 -16 8 -17 14 -7 7 10 9 9 9 -4 0 -9 -10 -24 -22 -34 -16 -11 -17 -15 -5
-11 9 4 17 2 17 -2 0 -5 -6 -11 -12 -14 -10 -3 -10 -7 1 -20 18 -22 7 -22 -14
0 -14 14 -18 14 -26 2 -13 -21 -11 -39 5 -33 8 3 17 1 21 -5 4 -8 -5 -9 -29
-5 -23 3 -36 1 -36 -6 0 -6 5 -8 12 -4 6 4 9 3 5 -2 -3 -5 1 -18 9 -29 9 -11
14 -14 14 -6 0 8 11 24 25 37 14 13 25 18 25 12 0 -6 3 -8 8 -4 4 4 7 13 7 19
0 7 15 11 37 11 21 -1 36 2 33 6 -2 4 4 15 15 25 11 10 20 24 20 32 0 8 5 11
10 8 6 -3 10 1 10 9 0 8 4 18 10 21 6 4 7 -1 4 -12 -5 -17 -5 -17 9 0 8 9 23
17 33 18 14 1 12 3 -6 8 l-25 7 29 8 c23 6 26 10 16 16 -9 5 -20 4 -28 -2 -10
-9 -15 -9 -21 1 -6 10 -10 9 -14 -4 -5 -10 -3 -14 5 -9 7 4 8 3 4 -4 -4 -6
-13 -9 -22 -5 -9 3 -14 0 -12 -7 2 -7 -4 -15 -12 -17 -13 -4 -13 -3 0 6 10 7
11 11 3 11 -7 0 -10 7 -7 15 4 8 9 13 13 11 4 -3 7 5 8 17 0 12 -1 16 -4 9 -4
-10 -10 -9 -24 4 -19 17 -20 17 -13 -1 5 -13 4 -16 -4 -11 -7 4 -12 16 -12 26
0 29 -13 31 -49 9z m9 -34 c-10 -12 -10 -15 4 -15 9 0 16 -5 16 -10 0 -7 -7
-7 -21 0 -16 9 -18 14 -8 26 6 8 14 14 16 14 3 0 0 -7 -7 -15z m57 -77 c-3 -8
-6 -5 -6 6 -1 11 2 17 5 13 3 -3 4 -12 1 -19z m-34 -23 c-5 -15 12 -21 20 -7
2 4 2 2 1 -5 -2 -6 1 -13 6 -15 5 -2 -1 -8 -15 -14 -19 -9 -25 -9 -29 2 -3 9
1 11 12 7 14 -5 15 -3 5 8 -15 15 -18 53 -3 44 5 -3 7 -12 3 -20z"/>
<path d="M777 1638 c-2 -7 3 -28 13 -46 16 -29 19 -31 31 -15 12 14 12 16 -1
9 -9 -5 -8 -2 2 7 14 11 15 16 5 27 -10 10 -9 12 6 7 9 -4 17 -3 17 2 0 5 -9
11 -19 14 -20 5 -36 -17 -25 -34 3 -5 0 -9 -6 -9 -8 0 -10 9 -6 25 6 25 -8 36
-17 13z"/>
<path d="M1096 1638 c3 -4 11 -5 19 -1 21 7 19 12 -4 10 -11 0 -18 -5 -15 -9z"/>
<path d="M1143 1631 c0 -11 5 -18 9 -15 4 3 5 11 1 19 -7 21 -12 19 -10 -4z"/>
<path d="M4975 1642 c2 -2 -8 -20 -21 -40 -14 -19 -23 -40 -21 -46 6 -19 38
-19 58 0 15 13 16 20 7 31 -6 8 -17 12 -25 9 -16 -7 -17 6 -1 22 16 16 29 15
22 -2 -6 -17 12 -31 21 -16 3 5 2 10 -3 10 -6 0 -8 8 -5 18 3 13 -2 18 -16 18
-11 0 -18 -2 -16 -4z m-7 -75 c8 -10 6 -13 -11 -14 -12 0 -16 1 -9 4 6 3 10 9
6 14 -8 14 2 11 14 -4z"/>
<path d="M4819 1623 c-1 -5 -1 -11 0 -15 0 -5 -4 -8 -10 -8 -8 0 -7 -6 2 -17
10 -11 10 -14 2 -9 -7 4 -13 2 -13 -3 0 -6 5 -11 11 -11 5 0 8 -4 5 -8 -9 -14
63 -7 77 7 10 11 9 12 -3 6 -13 -8 -13 -7 -1 8 9 12 10 17 2 17 -7 0 -10 4 -6
10 3 5 13 6 22 3 15 -6 16 -5 3 9 -13 13 -16 13 -29 0 -10 -10 -16 -11 -19 -3
-2 6 -8 11 -13 11 -6 0 -7 -5 -3 -11 4 -7 1 -10 -7 -7 -8 3 -13 11 -11 17 1 6
0 11 -3 11 -3 0 -6 -3 -6 -7z"/>
<path d="M1200 1611 c0 -6 4 -13 10 -16 6 -3 7 1 4 9 -7 18 -14 21 -14 7z"/>
<path d="M1235 1569 c-4 -6 -5 -12 -2 -15 2 -3 7 2 10 11 7 17 1 20 -8 4z"/>
<path d="M724 1559 c3 -15 36 -21 36 -7 0 6 -6 8 -14 5 -8 -3 -17 -2 -20 4 -2
5 -3 4 -2 -2z"/>
<path d="M4905 1550 c-3 -5 -1 -10 4 -10 6 0 11 5 11 10 0 6 -2 10 -4 10 -3 0
-8 -4 -11 -10z"/>
<path d="M4197 1428 c-14 -51 -38 -140 -52 -198 -26 -101 -95 -334 -135 -452
-11 -31 -17 -63 -15 -70 3 -7 30 -26 60 -43 56 -30 62 -39 45 -65 -8 -12 -11
-12 -27 1 -10 8 -25 15 -33 14 -8 0 -21 5 -29 13 -27 26 -45 8 -73 -73 -14
-44 -29 -99 -32 -123 -3 -24 -10 -50 -17 -58 -6 -7 -9 -19 -6 -26 2 -7 -2 -25
-9 -40 -10 -20 -11 -34 -4 -53 5 -14 6 -24 1 -21 -12 8 -24 -10 -44 -64 -9
-24 -13 -48 -9 -52 5 -5 49 -8 98 -6 77 3 89 5 92 22 3 13 0 16 -10 11 -7 -4
0 4 16 19 16 14 33 26 38 26 4 0 8 5 8 11 0 8 -5 7 -15 -1 -13 -11 -14 -10 -9
4 8 20 23 21 30 1 4 -8 10 -12 15 -9 5 3 9 -1 10 -8 1 -20 6 -41 18 -70 10
-28 12 -28 106 -29 52 -1 98 -2 103 -3 20 -6 339 -18 499 -19 101 -1 183 -6
183 -10 0 -5 4 -6 9 -2 5 3 8 18 7 33 -2 18 2 29 13 34 14 6 13 7 -3 7 -13 1
-16 6 -12 17 6 15 4 15 -11 3 -15 -12 -16 -12 -10 4 3 9 2 17 -3 17 -5 0 -7 6
-4 14 3 8 -4 16 -18 20 -17 4 -19 8 -10 14 9 6 10 16 3 34 -7 18 -6 29 2 37 8
8 8 11 -1 11 -7 0 -12 -4 -12 -10 0 -5 -5 -10 -10 -10 -12 0 -10 31 2 40 12 9
17 60 6 60 -5 0 -7 7 -4 16 4 10 2 13 -6 8 -7 -5 -9 1 -4 19 5 22 3 25 -19 23
-13 -2 -22 0 -20 5 3 4 0 9 -7 12 -7 2 -5 3 5 1 14 -2 16 2 11 19 -6 21 -6 21
8 3 19 -25 40 -12 36 22 -6 62 -60 76 -162 42 -33 -11 -64 -20 -68 -20 -5 0
-24 -9 -44 -21 -20 -11 -39 -18 -42 -14 -3 3 -2 5 2 5 4 0 2 8 -3 19 -10 18
-15 41 -26 116 -5 34 -35 145 -65 238 -5 15 -29 62 -52 105 -24 42 -56 106
-72 142 -68 155 -126 277 -155 325 -10 17 -18 32 -18 35 1 3 -4 13 -9 23 -9
15 -16 2 -37 -75z m743 -933 c0 -8 -4 -15 -10 -15 -5 0 -7 7 -4 15 4 8 8 15
10 15 2 0 4 -7 4 -15z m-865 -14 c3 -5 2 -12 -3 -15 -5 -3 -9 1 -9 9 0 17 3
19 12 6z m10 -40 c-3 -5 -1 -13 5 -16 8 -5 7 -11 -1 -21 -17 -21 -31 -17 -20
4 7 13 6 23 -1 30 -9 9 -8 12 6 12 9 0 15 -4 11 -9z m832 -23 c-3 -8 -6 -5 -6
6 -1 11 2 17 5 13 3 -3 4 -12 1 -19z m17 -34 c6 -15 4 -15 -11 -3 -10 7 -20
15 -22 16 -2 2 3 3 11 3 9 0 19 -7 22 -16z m-825 -31 c7 -14 7 -23 1 -23 -6 0
-10 -7 -10 -15 0 -24 -36 -18 -37 6 -1 14 3 19 12 15 7 -2 16 2 19 10 3 8 2
13 -3 10 -5 -3 -11 0 -14 7 -9 24 21 14 32 -10z m-183 -8 c-2 -7 0 -17 5 -22
5 -5 -1 -14 -14 -22 -19 -12 -21 -12 -11 0 5 8 10 26 9 41 0 15 3 24 8 21 4
-3 6 -11 3 -18z m1008 7 c3 -5 -1 -9 -9 -9 -8 0 -12 4 -9 9 3 4 7 8 9 8 2 0 6
-4 9 -8z m-976 -53 c-7 -5 -17 -9 -23 -9 -5 1 -2 5 8 11 9 5 18 18 18 27 1 14
2 14 6 -2 3 -10 -1 -22 -9 -27z m61 27 c9 -10 8 -16 -4 -26 -13 -11 -14 -10
-9 5 4 10 1 21 -7 26 -8 5 -9 9 -3 9 6 0 17 -6 23 -14z m931 -66 c0 -5 -5 -10
-11 -10 -5 0 -7 5 -4 10 3 6 8 10 11 10 2 0 4 -4 4 -10z m-974 -39 c-2 -14 -5
-29 -5 -32 -1 -4 -8 -9 -16 -13 -13 -4 -14 -2 -5 14 9 17 8 20 -9 20 -18 0
-19 3 -10 24 16 34 51 24 45 -13z m984 15 c0 -2 -7 -7 -16 -10 -8 -3 -12 -2
-9 4 6 10 25 14 25 6z m-953 -62 c-3 -3 -12 -4 -19 -1 -8 3 -5 6 6 6 11 1 17
-2 13 -5z m892 -27 c0 -9 -2 -9 -5 0 -3 7 -13 9 -22 6 -14 -4 -14 -3 -2 5 16
12 30 7 29 -11z m27 -52 c1 -8 -2 -13 -7 -9 -5 3 -9 0 -9 -5 0 -6 -5 -11 -12
-11 -6 0 -4 7 5 18 10 10 15 22 12 25 -3 4 -2 5 2 2 4 -3 8 -12 9 -20z"/>
<path d="M775 1471 c-3 -6 -11 -8 -17 -5 -6 4 -5 -3 2 -16 11 -21 13 -21 28
-6 12 11 13 19 5 27 -8 8 -13 8 -18 0z"/>
<path d="M724 1413 c-1 -13 -9 -30 -19 -37 -14 -10 -13 -11 12 -10 39 3 40 3
24 13 -12 8 -12 14 -3 33 12 23 12 23 6 1 -3 -13 -1 -23 4 -23 16 0 8 43 -8
45 -10 2 -16 -6 -16 -22z"/>
<path d="M1345 1279 c-4 -6 -5 -12 -2 -15 2 -3 7 2 10 11 7 17 1 20 -8 4z"/>
<path d="M5090 1238 c0 -6 -28 -39 -63 -72 -61 -61 -87 -95 -100 -128 -4 -11
21 -43 84 -107 49 -50 93 -91 97 -91 14 0 39 400 26 401 -5 0 -17 2 -26 4 -10
2 -18 -1 -18 -7z"/>
<path d="M1316 1211 c-4 -5 -2 -12 3 -15 5 -4 12 -2 15 3 4 5 2 12 -3 15 -5 4
-12 2 -15 -3z"/>
<path d="M813 1185 c0 -8 4 -12 9 -9 5 3 6 10 3 15 -9 13 -12 11 -12 -6z"/>
<path d="M695 1182 c3 -3 -1 -12 -7 -21 -8 -10 -4 -9 10 3 26 23 26 23 7 23
-8 0 -13 -3 -10 -5z"/>
<path d="M373 1163 c-7 -3 -13 -10 -13 -15 0 -6 3 -8 7 -5 3 4 12 2 20 -4 7
-6 13 -8 13 -3 0 17 -15 31 -27 27z"/>
<path d="M1147 1113 c-10 -9 -9 -23 1 -23 5 0 9 7 9 15 0 17 -1 18 -10 8z"/>
<path d="M370 1076 c0 -2 8 -10 18 -17 15 -13 16 -12 3 4 -13 16 -21 21 -21
13z"/>
<path d="M645 1041 c-3 -5 -2 -12 3 -15 5 -3 9 1 9 9 0 17 -3 19 -12 6z"/>
<path d="M898 1028 c5 -5 16 -8 23 -6 8 3 3 7 -10 11 -17 4 -21 3 -13 -5z"/>
<path d="M1096 1012 c-4 -4 -13 -7 -19 -7 -7 0 -13 -9 -14 -20 -2 -11 0 -15 3
-9 3 7 14 9 26 6 14 -3 19 -1 15 6 -4 5 -2 12 5 14 8 3 9 6 1 11 -5 4 -13 3
-17 -1z"/>
<path d="M1020 976 c0 -2 7 -7 16 -10 8 -3 12 -2 9 4 -6 10 -25 14 -25 6z"/>
<path d="M3733 365 c0 -9 4 -14 9 -13 5 2 10 8 10 13 0 5 -5 11 -10 13 -5 1
-9 -4 -9 -13z"/>
<path d="M1046 361 c-4 -6 -11 -9 -15 -7 -4 3 -7 -5 -6 -17 3 -30 -5 -47 -21
-47 -8 0 -11 -6 -8 -15 4 -8 16 -15 29 -15 17 0 26 10 38 41 14 35 19 40 31
30 17 -14 28 -1 15 19 -6 10 -9 11 -9 3 0 -16 -21 -12 -36 6 -8 10 -13 11 -18
2z"/>
<path d="M1077 306 c-3 -8 0 -17 7 -19 10 -4 12 1 9 14 -6 23 -9 24 -16 5z"/>
<path d="M2548 42 c-50 -30 -36 -42 52 -42 88 0 98 9 48 40 -40 24 -64 25
-100 2z"/>
<path d="M1417 32 c-10 -10 -17 -22 -17 -25 0 -4 37 -7 82 -7 l81 0 -23 25
c-30 31 -98 35 -123 7z"/>
</g>
</svg>
